<?xml version="1.0" encoding="UTF-8"?>
<svg version="1.1" xmlns="http://www.w3.org/2000/svg" width="1024" height="1024">
<path d="M0 0 C337.92 0 675.84 0 1024 0 C1024 337.92 1024 675.84 1024 1024 C686.08 1024 348.16 1024 0 1024 C0 686.08 0 348.16 0 0 Z " fill="#E9E9E9" transform="translate(0,0)"/>
<path d="M0 0 C1.80404297 0.57621094 1.80404297 0.57621094 3.64453125 1.1640625 C31.79263303 11.17076374 55.17902423 31.91356465 68.27807617 58.79394531 C73.28011929 69.59657808 77.61324514 81.01059942 78 93 C77.0409375 93.4021875 77.0409375 93.4021875 76.0625 93.8125 C73.66868314 94.88667752 73.66868314 94.88667752 73 98 C71.68 98 70.36 98 69 98 C69 98.66 69 99.32 69 100 C70.216875 99.896875 71.43375 99.79375 72.6875 99.6875 C76.17260292 99.69985852 76.92325957 99.94611842 79.9375 102.0625 C82.47785829 105.68058605 83.15026319 107.5672359 83 112 C81.83523234 115.16151223 80.45146589 117.66724917 78 120 C74.1875 120.5 74.1875 120.5 71 120 C71 120.66 71 121.32 71 122 C73.64 122 76.28 122 79 122 C79.26181293 126.31991337 78.24478185 129.91870869 77 134 C76.65751221 135.13514038 76.65751221 135.13514038 76.30810547 136.29321289 C66.75484408 167.4450176 49.13016341 192.99109308 20.07324219 209.06591797 C2.71718669 218.16464433 -14.9632946 222.43181511 -34.5625 222.375 C-35.26865448 222.37445618 -35.97480896 222.37391235 -36.70236206 222.37335205 C-47.86871545 222.33385198 -58.35707931 221.58611193 -69 218 C-69.95350342 217.68651611 -69.95350342 217.68651611 -70.92626953 217.36669922 C-85.68143956 212.36081561 -99.53763981 204.55955826 -111 194 C-111.82346924 193.24807373 -111.82346924 193.24807373 -112.66357422 192.48095703 C-130.32290484 176.18565747 -141.5647365 156.46311768 -147 133 C-147.17442627 132.2985083 -147.34885254 131.5970166 -147.52856445 130.87426758 C-154.0259059 102.46329757 -147.26537102 73.79306901 -133 49 C-130.04364913 44.32496618 -126.66374781 40.14629021 -123 36 C-122.23816406 35.1028125 -121.47632813 34.205625 -120.69140625 33.28125 C-103.66924013 13.69248344 -81.99038428 2.20764785 -56.9284668 -3.55444336 C-55.65762442 -3.8480612 -54.39415385 -4.17597554 -53.14160156 -4.53979492 C-36.2852785 -8.16202121 -16.12070564 -5.24653675 0 0 Z " fill="#E8E8E9" transform="translate(547,331)"/>
<path d="M0 0 C0.68852051 0.24137695 1.37704102 0.48275391 2.08642578 0.73144531 C17.11198349 6.11343152 29.51276887 13.8553705 41 25 C41.67289063 25.59941406 42.34578125 26.19882812 43.0390625 26.81640625 C51.92676633 35.0136311 60.51491223 47.36998801 64 59 C63.8125 62.6875 63.8125 62.6875 63 65 C57.06 65.495 57.06 65.495 51 66 C50.49210938 64.94941406 49.98421875 63.89882813 49.4609375 62.81640625 C43.359888 50.31327842 37.20891992 40.66417518 27 31 C24.8533991 34.21990135 24.21279375 36.60356724 23.30859375 40.34765625 C23.00373047 41.59224609 22.69886719 42.83683594 22.38476562 44.11914062 C22.06865596 45.43350855 21.75290479 46.74796275 21.4375 48.0625 C20.81437577 50.63751109 20.18701611 53.21142645 19.55859375 55.78515625 C19.28329834 56.92863525 19.00800293 58.07211426 18.72436523 59.25024414 C18 62 18 62 17 64 C13.9375 64.625 13.9375 64.625 11 65 C9.15622226 59.77953627 11.11121726 55.4534376 12.75 50.4375 C13.31037293 48.64508652 13.86897351 46.85211795 14.42578125 45.05859375 C14.69729004 44.19218262 14.96879883 43.32577148 15.24853516 42.43310547 C16.2144245 39.30573275 17.1041393 36.16520565 17.9375 33 C18.17339844 32.113125 18.40929687 31.22625 18.65234375 30.3125 C19.03510524 27.76649101 18.8729811 26.40814241 18 24 C15.50675213 22.28135341 13.17363243 20.87925947 10.5 19.5 C9.74477051 19.10490234 8.98954102 18.70980469 8.21142578 18.30273438 C-1.73107769 13.34074009 -12.06949467 11.53789478 -23 10 C-22.61142822 11.03406982 -22.22285645 12.06813965 -21.82250977 13.13354492 C-20.3780648 16.98057834 -18.9386529 20.82947874 -17.50073242 24.67895508 C-16.87840088 26.34287822 -16.25471646 28.00629603 -15.62963867 29.66918945 C-14.7299722 32.06328996 -13.83523096 34.45918211 -12.94140625 36.85546875 C-12.6622084 37.5952446 -12.38301056 38.33502045 -12.09535217 39.09721375 C-10.75193602 42.71320344 -9.60791649 46.17176911 -9 50 C-9.61875 50.103125 -10.2375 50.20625 -10.875 50.3125 C-13.36526484 50.87525373 -13.36526484 50.87525373 -15 54 C-15.66 53.34 -16.32 52.68 -17 52 C-17 50.68 -17 49.36 -17 48 C-17.50939226 46.09558476 -17.50939226 46.09558476 -18.28515625 44.18115234 C-18.56544678 43.44714203 -18.8457373 42.71313171 -19.13452148 41.95687866 C-19.44075439 41.17446808 -19.7469873 40.3920575 -20.0625 39.5859375 C-20.37324463 38.77508698 -20.68398926 37.96423645 -21.00415039 37.1288147 C-21.99650879 34.54175031 -22.99766002 31.95821176 -24 29.375 C-25.00117694 26.78422669 -26.00042736 24.19275195 -26.99584961 21.59976196 C-27.61543171 19.98685257 -28.23854752 18.37529542 -28.86547852 16.76522827 C-31 11.22346383 -31 11.22346383 -31 9 C-46.94337083 10.83259759 -61.13307932 13.3790308 -75 22 C-70.84160354 25.48163782 -66.43568148 28.39891428 -61.875 31.3125 C-61.12742432 31.79307861 -60.37984863 32.27365723 -59.60961914 32.76879883 C-57.40848934 34.18247486 -55.20480732 35.59206794 -53 37 C-52.38527832 37.3928418 -51.77055664 37.78568359 -51.13720703 38.19042969 C-48.09534591 40.13308675 -45.04987475 42.06994967 -42 44 C-42.66 44.99 -43.32 45.98 -44 47 C-44.66 47 -45.32 47 -46 47 C-46.33 47.99 -46.66 48.98 -47 50 C-47.95519531 49.35933594 -48.91039062 48.71867187 -49.89453125 48.05859375 C-56.75498415 43.46625787 -63.63005294 38.91709601 -70.6328125 34.54296875 C-72.81041146 33.12357669 -74.8302887 31.60154426 -76.875 30 C-79.70855902 27.78147539 -79.70855902 27.78147539 -82.328125 28.03515625 C-85.97888957 29.3534879 -88.24576194 31.69198735 -90.875 34.4375 C-91.6649939 35.24731323 -91.6649939 35.24731323 -92.47094727 36.07348633 C-100.559507 44.53519199 -107.68450534 54.67205992 -111 66 C-111.33 66.66 -111.66 67.32 -112 68 C-105.07 68 -98.14 68 -91 68 C-91 68.33 -91 68.66 -91 69 C-98.26 69 -105.52 69 -113 69 C-116.40196458 84.45058915 -116.97981376 99.26755137 -115 115 C-110.41420947 112.00367964 -106.07774967 108.79834709 -101.75854492 105.42504883 C-98.14162368 102.61636128 -94.48148426 99.88044696 -90.77734375 97.1875 C-89.42406982 96.19617065 -89.42406982 96.19617065 -88.04345703 95.18481445 C-86.2450743 93.86954813 -84.44017932 92.56313294 -82.62841797 91.26635742 C-81.38342529 90.35140503 -81.38342529 90.35140503 -80.11328125 89.41796875 C-78.99626831 88.61008911 -78.99626831 88.61008911 -77.85668945 87.78588867 C-75.68680984 85.69875266 -74.92231793 83.83848418 -74 81 C-73.01 81 -72.02 81 -71 81 C-70.63261719 80.35546875 -70.26523437 79.7109375 -69.88671875 79.046875 C-67.64182173 76.61141737 -66.96930598 76.64796138 -63.76953125 76.390625 C-62.11785418 76.32429259 -60.46526929 76.27812136 -58.8125 76.25 C-57.96751953 76.22035156 -57.12253906 76.19070313 -56.25195312 76.16015625 C-54.16848178 76.0895301 -52.08423494 76.04249205 -50 76 C-50.02320313 76.75925781 -50.04640625 77.51851563 -50.0703125 78.30078125 C-50.08835937 79.29464844 -50.10640625 80.28851563 -50.125 81.3125 C-50.14820313 82.29863281 -50.17140625 83.28476562 -50.1953125 84.30078125 C-50.20682639 87.22406527 -50.20682639 87.22406527 -48 90 C-47.22630226 98.26151826 -48.25609356 106.76389297 -49 115 C-49.66 115 -50.32 115 -51 115 C-50.835 115.825 -50.67 116.65 -50.5 117.5 C-49.74413059 122.79108588 -49.54436178 127.80129209 -51 133 C-50.67 133.33 -50.34 133.66 -50 134 C-49.85884839 136.67058851 -49.95752893 139.32432238 -50 142 C-51.50357913 140.08635383 -52.8447471 138.37415948 -53.78125 136.1171875 C-55.41340416 133.28184277 -57.51680538 131.82928828 -60.125 129.875 C-61.78509132 128.62875581 -63.42022264 127.34659989 -65 126 C-65 125.34 -65 124.68 -65 124 C-66.32 123.67 -67.64 123.34 -69 123 C-69.14695312 124.03833984 -69.14695312 124.03833984 -69.296875 125.09765625 C-71.48161635 139.3926449 -75.87014107 153.17174286 -80 167 C-79.13544189 167.43131226 -79.13544189 167.43131226 -78.25341797 167.87133789 C-76.84146333 168.57853901 -75.43132697 169.28939514 -74.02392578 170.00561523 C-61.88027411 176.15731475 -50.88212797 181.1047935 -37 181 C-37.59071289 179.43318481 -37.59071289 179.43318481 -38.19335938 177.8347168 C-39.65193155 173.96205643 -41.1040401 170.08699937 -42.55419922 166.21118164 C-43.1829684 164.5334359 -43.81349302 162.85634697 -44.44580078 161.17993164 C-45.35390167 158.77139719 -46.25568147 156.36057805 -47.15625 153.94921875 C-47.44060913 153.19912033 -47.72496826 152.44902191 -48.01794434 151.67619324 C-49.14221978 148.65027662 -50 146.25571279 -50 143 C-48.68 143 -47.36 143 -46 143 C-46 142.01 -46 141.02 -46 140 C-45.34 140 -44.68 140 -44 140 C-39.05 153.53 -34.1 167.06 -29 181 C-12.16410409 181 -0.65687135 177.55268401 14 170 C10.07875956 166.75847863 5.9932474 163.90218805 1.765625 161.0859375 C0.37361001 160.15117256 -1.01831447 159.21627282 -2.41015625 158.28125 C-4.59044842 156.82015314 -6.77169095 155.36052015 -8.95458984 153.90332031 C-11.07136589 152.48897856 -13.18433873 151.06910127 -15.296875 149.6484375 C-15.9541156 149.21195892 -16.6113562 148.77548035 -17.28851318 148.32577515 C-21.88663668 145.22672663 -21.88663668 145.22672663 -23 143 C-21.5459375 142.566875 -21.5459375 142.566875 -20.0625 142.125 C-16.89335797 141.35785318 -16.89335797 141.35785318 -16 139 C-15.25169922 139.83144531 -15.25169922 139.83144531 -14.48828125 140.6796875 C-11.31448686 143.63923831 -7.85255438 145.82113407 -4.1875 148.125 C0.36140746 151.00897682 4.89308526 153.89642612 9.3125 156.9765625 C9.98692139 157.44304199 10.66134277 157.90952148 11.35620117 158.39013672 C12.63675738 159.2802775 13.91070017 160.18002736 15.17700195 161.09033203 C18.36007853 163.33903835 18.36007853 163.33903835 22.1015625 164.01953125 C35.14886463 157.01264677 43.80143872 141.91486782 50 129 C54.62 129 59.24 129 64 129 C63.1485097 134.10894181 62.02061175 137.57966478 59.625 142 C59.2734082 142.64936523 58.92181641 143.29873047 58.55957031 143.96777344 C45.75873519 166.8145535 24.73340159 183.54184883 0 192 C-4.63643698 193.27950552 -9.25384521 194.23350213 -14 195 C-15.27875 195.226875 -16.5575 195.45375 -17.875 195.6875 C-44.95066315 198.38359358 -71.97907039 191.11399203 -93.28344727 173.95458984 C-114.02048014 156.50181325 -127.95419562 132.71051496 -130.30712891 105.44042969 C-131.23018836 89.09697238 -130.42241867 74.15650071 -124 59 C-123.55043945 57.92274658 -123.55043945 57.92274658 -123.09179688 56.82373047 C-111.17283496 29.0950627 -88.65782425 11.25265718 -61.37890625 -0.08984375 C-59.26367237 -0.86995753 -57.19195376 -1.47472099 -55 -2 C-54.17113281 -2.20238281 -53.34226562 -2.40476562 -52.48828125 -2.61328125 C-35.47484168 -5.95236752 -16.3937601 -5.81436612 0 0 Z " fill="#E4E7E9" transform="translate(542,344)"/>
<path d="M0 0 C1.80404297 0.57621094 1.80404297 0.57621094 3.64453125 1.1640625 C31.79914855 11.17308002 55.1657932 31.91405447 68.27807617 58.79174805 C70.64337644 63.89562155 72.61911316 69.11629675 74.4375 74.4375 C74.6847583 75.15848877 74.9320166 75.87947754 75.18676758 76.62231445 C76.8367323 81.74291491 77.54060114 86.64034663 78 92 C75.81901042 92.22786458 73.63802083 92.45572917 71.45703125 92.68359375 C68.93998004 93.00772912 66.4822857 93.47532505 64 94 C63.85304688 93.16339844 63.70609375 92.32679688 63.5546875 91.46484375 C59.51019926 70.47534442 50.14742349 52.97455703 35 38 C34.20980469 37.19949219 33.41960937 36.39898437 32.60546875 35.57421875 C21.94056421 25.33378802 8.88515489 18.72900203 -5 14 C-6.18335938 13.58621094 -7.36671875 13.17242187 -8.5859375 12.74609375 C-33.13712587 5.36014924 -60.03737629 9.75442805 -82.5 21.1875 C-103.14370402 32.69219392 -118.87943639 50.14191167 -128 72 C-128.43602539 73.03229736 -128.43602539 73.03229736 -128.88085938 74.08544922 C-137.76602873 96.09732848 -136.94118453 123.29630905 -128.09082031 145.25585938 C-126.01788632 150.01029514 -123.59992378 154.51661605 -121 159 C-120.45601563 159.98097656 -119.91203125 160.96195313 -119.3515625 161.97265625 C-105.87063503 184.82447232 -82.23012778 199.32064141 -57 206 C-29.64702415 211.85041253 -2.38397672 206.15578199 21.06835938 191.30224609 C42.53081855 176.83298962 55.44321021 155.87217938 62.32421875 131.21875 C63.07192443 128.76385505 64.04692346 126.38269135 65 124 C69.29 124.66 73.58 125.32 78 126 C73.76013475 155.67905673 57.89252683 181.90815066 34.07421875 200.08203125 C13.65895424 214.94129013 -9.31703201 222.44818277 -34.5625 222.375 C-35.26865448 222.37445618 -35.97480896 222.37391235 -36.70236206 222.37335205 C-47.86871545 222.33385198 -58.35707931 221.58611193 -69 218 C-69.95350342 217.68651611 -69.95350342 217.68651611 -70.92626953 217.36669922 C-85.68143956 212.36081561 -99.53763981 204.55955826 -111 194 C-111.82346924 193.24807373 -111.82346924 193.24807373 -112.66357422 192.48095703 C-130.32290484 176.18565747 -141.5647365 156.46311768 -147 133 C-147.17442627 132.2985083 -147.34885254 131.5970166 -147.52856445 130.87426758 C-154.0259059 102.46329757 -147.26537102 73.79306901 -133 49 C-130.04364913 44.32496618 -126.66374781 40.14629021 -123 36 C-122.23816406 35.1028125 -121.47632813 34.205625 -120.69140625 33.28125 C-103.66924013 13.69248344 -81.99038428 2.20764785 -56.9284668 -3.55444336 C-55.65762442 -3.8480612 -54.39415385 -4.17597554 -53.14160156 -4.53979492 C-36.2852785 -8.16202121 -16.12070564 -5.24653675 0 0 Z " fill="#1A3F5A" transform="translate(547,331)"/>
<path d="M0 0 C12.36738044 9.99915865 19.08941767 20.8654105 26 35 C27.98 35 29.96 35 32 35 C32.495 34.01 32.495 34.01 33 33 C33 33.66 33 34.32 33 35 C34.32 35 35.64 35 37 35 C37 33.35 37 31.7 37 30 C39 31 39 31 40.0703125 33.6953125 C43.55548208 45.02856765 43.55548208 45.02856765 43 51 C43.9590625 50.505 43.9590625 50.505 44.9375 50 C49.01236841 48.66943072 52.75190425 48.83340801 57 49 C56.360625 49.433125 55.72125 49.86625 55.0625 50.3125 C52.73253997 51.91239177 52.73253997 51.91239177 52 55 C50.68 55 49.36 55 48 55 C48 55.66 48 56.32 48 57 C49.8253125 56.8453125 49.8253125 56.8453125 51.6875 56.6875 C55.17260292 56.69985852 55.92325957 56.94611842 58.9375 59.0625 C61.47785829 62.68058605 62.15026319 64.5672359 62 69 C60.83523234 72.16151223 59.45146589 74.66724917 57 77 C53.1875 77.5 53.1875 77.5 50 77 C50 77.66 50 78.32 50 79 C52.64 79 55.28 79 58 79 C58 80.65 58 82.3 58 84 C56.41632253 83.85795259 54.83306682 83.71119847 53.25 83.5625 C51.92742187 83.44068359 51.92742187 83.44068359 50.578125 83.31640625 C48.30649548 83.03761535 46.20148177 82.61209423 44 82 C43.80664062 82.71285156 43.61328125 83.42570312 43.4140625 84.16015625 C43.15367187 85.11792969 42.89328125 86.07570313 42.625 87.0625 C42.24214844 88.47208984 42.24214844 88.47208984 41.8515625 89.91015625 C40.92295489 93.2795536 39.96015528 96.63945652 39 100 C34.05 99.67 29.1 99.34 24 99 C23.34 100.98 22.68 102.96 22 105 C16.06461754 115.84410417 7.58867376 128.28059691 -3 135 C-7.85122321 135.0805851 -11.40887439 131.91333461 -15.1875 129.1875 C-16.59652364 128.19110475 -18.006729 127.19637899 -19.41796875 126.203125 C-20.52664307 125.42098633 -20.52664307 125.42098633 -21.65771484 124.62304688 C-24.09741544 122.93249762 -26.56644584 121.29604676 -29.05078125 119.671875 C-29.87618408 119.13151611 -30.70158691 118.59115723 -31.55200195 118.03442383 C-33.1684785 116.97993364 -34.78806127 115.93018805 -36.41088867 114.88549805 C-37.50687378 114.16680542 -37.50687378 114.16680542 -38.625 113.43359375 C-39.27726563 113.01134521 -39.92953125 112.58909668 -40.6015625 112.15405273 C-41.06304688 111.77321533 -41.52453125 111.39237793 -42 111 C-42 110.34 -42 109.68 -42 109 C-41.09636719 108.51789063 -40.19273437 108.03578125 -39.26171875 107.5390625 C-38.07026983 106.90112135 -36.87886594 106.2630961 -35.6875 105.625 C-35.09259766 105.30789063 -34.49769531 104.99078125 -33.88476562 104.6640625 C-31.16634112 103.20613651 -28.56932446 101.71288297 -26 100 C-23.9152832 99.68115234 -23.9152832 99.68115234 -21.55078125 99.5859375 C-20.70322266 99.54726563 -19.85566406 99.50859375 -18.98242188 99.46875 C-18.10134766 99.4378125 -17.22027344 99.406875 -16.3125 99.375 C-15.41982422 99.33632813 -14.52714844 99.29765625 -13.60742188 99.2578125 C-11.4051538 99.16359782 -9.20289278 99.07798412 -7 99 C-6.34 97.68 -5.68 96.36 -5 95 C-11.93 94.505 -11.93 94.505 -19 94 C-18.34 92.35 -17.68 90.7 -17 89 C-16.49726562 87.54207031 -16.49726562 87.54207031 -15.984375 86.0546875 C-12.03063213 75.87004605 -5.82810177 71.03455176 3 65 C2.67 64.01 2.34 63.02 2 62 C-3.67129279 63.35580678 -3.67129279 63.35580678 -8 67 C-8.66 67 -9.32 67 -10 67 C-10.13277344 66.25234375 -10.26554688 65.5046875 -10.40234375 64.734375 C-10.66724609 63.25710938 -10.66724609 63.25710938 -10.9375 61.75 C-11.11152344 60.77546875 -11.28554688 59.8009375 -11.46484375 58.796875 C-11.92258158 56.13582186 -11.92258158 56.13582186 -12.56640625 54.140625 C-13.80451548 48.02815783 -12.96511522 42.99651982 -10.9375 37.1875 C-7.91706265 28.21008898 -5.63154179 19.05989262 -3.32397461 9.87768555 C-3.03659424 8.74371338 -2.74921387 7.60974121 -2.453125 6.44140625 C-2.19692383 5.41732666 -1.94072266 4.39324707 -1.67675781 3.33813477 C-1 1 -1 1 0 0 Z " fill="#E3E5E7" transform="translate(568,374)"/>
<path d="M0 0 C0.50921328 2.18537367 1.00694437 4.37342431 1.5 6.5625 C1.7784375 7.78066406 2.056875 8.99882812 2.34375 10.25390625 C3.52927183 17.02126001 2.88290631 22.45546779 1 28.9375 C0.80921875 29.62134766 0.6184375 30.30519531 0.421875 31.00976562 C-0.04404937 32.67544526 -0.52088411 34.33806675 -1 36 C1.88437779 34.70700306 3.87219421 33.34058637 6 31 C5.0174275 45.00165815 -0.00050353 58.60824338 -4 72 C-3.42362793 72.2875415 -2.84725586 72.57508301 -2.25341797 72.87133789 C-0.84146333 73.57853901 0.56867303 74.28939514 1.97607422 75.00561523 C14.11972589 81.15731475 25.11787203 86.1047935 39 86 C38.60619141 84.95545654 38.21238281 83.91091309 37.80664062 82.8347168 C36.34806845 78.96205643 34.8959599 75.08699937 33.44580078 71.21118164 C32.8170316 69.5334359 32.18650698 67.85634697 31.55419922 66.17993164 C30.64609833 63.77139719 29.74431853 61.36057805 28.84375 58.94921875 C28.55939087 58.19912033 28.27503174 57.44902191 27.98205566 56.67619324 C26.85778022 53.65027662 26 51.25571279 26 48 C27.32 48 28.64 48 30 48 C30 47.01 30 46.02 30 45 C30.66 45 31.32 45 32 45 C36.95 58.53 41.9 72.06 47 86 C63.83589591 86 75.34312865 82.55268401 90 75 C86.07875956 71.75847863 81.9932474 68.90218805 77.765625 66.0859375 C76.37361001 65.15117256 74.98168553 64.21627282 73.58984375 63.28125 C71.40955158 61.82015314 69.22830905 60.36052015 67.04541016 58.90332031 C64.92863411 57.48897856 62.81566127 56.06910127 60.703125 54.6484375 C59.7172641 53.99371964 59.7172641 53.99371964 58.71148682 53.32577515 C54.11336332 50.22672663 54.11336332 50.22672663 53 48 C53.969375 47.71125 54.93875 47.4225 55.9375 47.125 C59.10664203 46.35785318 59.10664203 46.35785318 60 44 C60.74830078 44.83144531 60.74830078 44.83144531 61.51171875 45.6796875 C64.68551314 48.63923831 68.14744562 50.82113407 71.8125 53.125 C76.36140746 56.00897682 80.89308526 58.89642612 85.3125 61.9765625 C85.98692139 62.44304199 86.66134277 62.90952148 87.35620117 63.39013672 C88.63675738 64.2802775 89.91070017 65.18002736 91.17700195 66.09033203 C94.36007853 68.33903835 94.36007853 68.33903835 98.1015625 69.01953125 C111.14886463 62.01264677 119.80143872 46.91486782 126 34 C130.62 34 135.24 34 140 34 C139.1485097 39.10894181 138.02061175 42.57966478 135.625 47 C135.2734082 47.64936523 134.92181641 48.29873047 134.55957031 48.96777344 C121.75873519 71.8145535 100.73340159 88.54184883 76 97 C71.36356302 98.27950552 66.74615479 99.23350213 62 100 C60.72125 100.226875 59.4425 100.45375 58.125 100.6875 C30.69257214 103.41911888 4.31513683 95.80241017 -17.5 78.9375 C-18.67618159 77.96978343 -19.84741572 76.99570475 -21 76 C-20.67 75.01 -20.34 74.02 -20 73 C-19.34 73 -18.68 73 -18 73 C-17.67 72.34 -17.34 71.68 -17 71 C-15.02 71 -13.04 71 -11 71 C-11 67.91733045 -12.22510353 66.55141368 -14 64 C-15.19559947 62.84088596 -16.40576609 61.69672756 -17.625 60.5625 C-25.77240065 52.5951524 -33.02379552 41.04958673 -36 30 C-35.68807707 27.50830797 -35.30911297 26.31353475 -33.53222656 24.51123047 C-32.90799805 24.05119629 -32.28376953 23.59116211 -31.640625 23.1171875 C-30.59394653 22.33287354 -30.59394653 22.33287354 -29.52612305 21.53271484 C-28.39944214 20.712146 -28.39944214 20.712146 -27.25 19.875 C-25.69902395 18.71901131 -24.14824486 17.56275832 -22.59765625 16.40625 C-21.43580811 15.54773438 -21.43580811 15.54773438 -20.25048828 14.671875 C-17.03114423 12.28024254 -13.85813444 9.83061454 -10.6875 7.375 C-8.79311033 5.91479183 -6.89750413 4.45615872 -5 3 C-3.86498047 2.12214844 -3.86498047 2.12214844 -2.70703125 1.2265625 C-1 0 -1 0 0 0 Z " fill="#E4E8EA" transform="translate(466,439)"/>
<path d="M0 0 C4.90875 -0.103125 9.8175 -0.20625 14.875 -0.3125 C16.40237793 -0.35802002 17.92975586 -0.40354004 19.50341797 -0.45043945 C28.45650191 -0.54105771 35.84756366 0.34274217 42.75537109 6.58666992 C45.94928777 10.02824324 46.35068552 13.39996545 46.5 18 C46.20023191 24.4814723 45.28276321 28.8285911 40.4375 33.4375 C38 35 38 35 36 35 C36.71027344 36.04800781 37.42054688 37.09601562 38.15234375 38.17578125 C39.08091199 39.55456439 40.00928738 40.93347743 40.9375 42.3125 C41.64036133 43.34793945 41.64036133 43.34793945 42.35742188 44.40429688 C42.80537109 45.07138672 43.25332031 45.73847656 43.71484375 46.42578125 C44.12855225 47.03848877 44.54226074 47.65119629 44.96850586 48.2824707 C46 50 46 50 47 53 C42.41432826 53.89303654 38.54269048 54.22204046 34 53 C31.73407704 50.1024097 30.15232583 47.32364255 28.47509766 44.08105469 C26.49308011 40.54959198 25.46107722 39.15439022 21.55859375 37.84765625 C17.5512672 37.5260327 17.5512672 37.5260327 12 38 C12 42.95 12 47.9 12 53 C8.04 53 4.08 53 0 53 C0 35.51 0 18.02 0 0 Z " fill="#1D415A" transform="translate(503,601)"/>
<path d="M0 0 C3.3 0 6.6 0 10 0 C12.64722817 3.09919396 14.18732697 5.45007723 16 9 C17.1167988 10.96004165 18.23670727 12.91831403 19.359375 14.875 C21.08007437 17.97066931 22.78969975 21.07220558 24.49609375 24.17578125 C25.04910156 25.16964844 25.60210937 26.16351562 26.171875 27.1875 C26.6678418 28.08855469 27.16380859 28.98960937 27.67480469 29.91796875 C28.83220341 32.13044241 28.83220341 32.13044241 31 33 C31.25378418 32.31139893 31.50756836 31.62279785 31.76904297 30.91333008 C33.17420798 27.58769857 34.88994292 24.50496516 36.6953125 21.38671875 C37.04761932 20.77230423 37.39992615 20.15788971 37.76290894 19.52485657 C38.8805647 17.57730491 40.00270362 15.63238041 41.125 13.6875 C41.88701711 12.36149954 42.648739 11.03532938 43.41015625 9.70898438 C45.27002521 6.4706854 47.1339218 3.23472577 49 0 C52.63 0 56.26 0 60 0 C60 17.49 60 34.98 60 53 C56.37 53 52.74 53 49 53 C48.67 42.77 48.34 32.54 48 22 C44.93171409 27.56210557 44.93171409 27.56210557 41.8684082 33.12695312 C39.74792854 36.95727299 37.59506058 40.76920599 35.35546875 44.53125 C34.97414795 45.17642578 34.59282715 45.82160156 34.19995117 46.48632812 C33 48 33 48 30 49 C26.60619968 47.86873323 26.36882658 47.43782326 24.64453125 44.5 C24.21479004 43.778125 23.78504883 43.05625 23.34228516 42.3125 C22.89933105 41.549375 22.45637695 40.78625 22 40 C21.33750244 38.88625 21.33750244 38.88625 20.66162109 37.75 C19.32742909 35.50540097 18.0059169 33.25390223 16.6875 31 C14.3671875 27.04 14.3671875 27.04 12 23 C11.67 32.9 11.34 42.8 11 53 C7.37 53 3.74 53 0 53 C0 35.51 0 18.02 0 0 Z " fill="#1C415B" transform="translate(424,601)"/>
<path d="M0 0 C10 0 10 0 12.55859375 1.6953125 C13.17863281 2.49710938 13.79867187 3.29890625 14.4375 4.125 C15.16453125 5.03121094 15.8915625 5.93742188 16.640625 6.87109375 C17.41921875 7.90363281 18.1978125 8.93617188 19 10 C19.9292241 11.18080587 20.86164508 12.35910143 21.796875 13.53515625 C23.70306788 15.9375256 25.59194354 18.35196324 27.46875 20.77734375 C29.46391847 23.3418181 31.53328864 25.81635085 33.6875 28.25 C36 31 36 31 36 33 C36.66 33 37.32 33 38 33 C38 22.11 38 11.22 38 0 C41.63 0 45.26 0 49 0 C49 17.49 49 34.98 49 53 C39 53 39 53 36.44140625 51.3046875 C35.51134766 50.10199219 35.51134766 50.10199219 34.5625 48.875 C33.83546875 47.9675 33.1084375 47.06 32.359375 46.125 C31.58078125 45.09375 30.8021875 44.0625 30 43 C29.07113005 41.83060722 28.13869567 40.66403882 27.203125 39.5 C22.34422441 33.42413269 17.66893488 27.22524651 13 21 C12.67 31.56 12.34 42.12 12 53 C8.04 53 4.08 53 0 53 C0 35.51 0 18.02 0 0 Z " fill="#1E425B" transform="translate(622,601)"/>
<path d="M0 0 C3.96 0 7.92 0 12 0 C17.37985965 10.58051133 22.51599942 21.25035581 27.43945312 32.05078125 C28.52243036 34.42415678 29.61259657 36.79414859 30.703125 39.1640625 C31.39626028 40.67949229 32.0889852 42.19510986 32.78125 43.7109375 C33.10613403 44.41600433 33.43101807 45.12107117 33.76574707 45.84750366 C36 50.77051543 36 50.77051543 36 53 C32.04 53 28.08 53 24 53 C20 44.25 20 44.25 20 42 C11.09 42 2.18 42 -7 42 C-7.99 44.97 -8.98 47.94 -10 51 C-10.33 51.66 -10.66 52.32 -11 53 C-14.96 53 -18.92 53 -23 53 C-16.80403351 37.70370773 -10.2445554 22.59283887 -3.16992188 7.68115234 C-1.96843096 5.13904299 -0.89054493 2.6716348 0 0 Z " fill="#1E435D" transform="translate(376,601)"/>
<path d="M0 0 C8.80734365 7.12083104 15.63488084 14.69083315 21 24.6875 C21.38591309 25.40010986 21.77182617 26.11271973 22.16943359 26.84692383 C24.39181184 31.17066966 26.03589906 35.0399467 26 40 C24.2890625 42.1953125 24.2890625 42.1953125 21.625 44.125 C20.62339844 44.87523437 19.62179687 45.62546875 18.58984375 46.3984375 C18.02378418 46.80674805 17.45772461 47.21505859 16.87451172 47.63574219 C14.02154321 49.71211468 11.233843 51.87186672 8.43701172 54.02294922 C6.27086435 55.68599746 4.09482931 57.33539173 1.91796875 58.984375 C-0.58467636 60.88456518 -3.00634211 62.8397946 -5.38671875 64.890625 C-8 67 -8 67 -10 67 C-10.13277344 66.25234375 -10.26554688 65.5046875 -10.40234375 64.734375 C-10.57894531 63.74953125 -10.75554688 62.7646875 -10.9375 61.75 C-11.11152344 60.77546875 -11.28554688 59.8009375 -11.46484375 58.796875 C-11.92258158 56.13582186 -11.92258158 56.13582186 -12.56640625 54.140625 C-13.80451548 48.02815783 -12.96511522 42.99651982 -10.9375 37.1875 C-7.91706265 28.21008898 -5.63154179 19.05989262 -3.32397461 9.87768555 C-3.03659424 8.74371338 -2.74921387 7.60974121 -2.453125 6.44140625 C-2.19692383 5.41732666 -1.94072266 4.39324707 -1.67675781 3.33813477 C-1 1 -1 1 0 0 Z " fill="#183E5A" transform="translate(568,374)"/>
<path d="M0 0 C1.29744141 0.01353516 1.29744141 0.01353516 2.62109375 0.02734375 C3.26175781 0.03894531 3.90242188 0.05054688 4.5625 0.0625 C8.61722999 10.38837188 12.59595218 20.74114995 16.5 31.125 C16.9014624 32.18976563 17.3029248 33.25453125 17.71655273 34.3515625 C18.08723877 35.34027344 18.4579248 36.32898438 18.83984375 37.34765625 C19.17234131 38.23332275 19.50483887 39.11898926 19.84741211 40.03149414 C20.5625 42.0625 20.5625 42.0625 20.5625 43.0625 C5.61488067 44.1637135 -2.94721081 39.60853066 -14.83056641 30.92480469 C-19.27169105 27.7522163 -23.8956196 24.86550802 -28.5 21.9375 C-30.16050925 20.87701198 -31.81829431 19.81224001 -33.47265625 18.7421875 C-34.1675415 18.29601074 -34.86242676 17.84983398 -35.57836914 17.39013672 C-37.40329417 16.08692696 -38.90443677 14.69390166 -40.4375 13.0625 C-33.88861334 8.75859153 -27.5939158 5.48878545 -20.125 3.1875 C-19.46822266 2.98487549 -18.81144531 2.78225098 -18.13476562 2.57348633 C-12.12003899 0.81565061 -6.261497 -0.08577393 0 0 Z " fill="#173E5A" transform="translate(506.4375,352.9375)"/>
<path d="M0 0 C4.31967519 0.84574693 5.95386986 2.81218939 9 6 C10.13993914 6.86601737 11.28155809 7.72982663 12.42456055 8.59179688 C16.65981303 12.20633658 18.14625231 16.1605693 19.89453125 21.34375 C20.21282394 22.23106812 20.53111664 23.11838623 20.85905457 24.03259277 C21.8637999 26.8483623 22.83840266 29.67350106 23.8125 32.5 C24.48437113 34.39782937 25.15818186 36.29497326 25.83398438 38.19140625 C28.28860354 45.10555237 30.69860954 52.03317221 33 59 C16.43412918 58.45774564 2.67792878 53.11861919 -11 44 C-10.33973111 38.58148899 -9.17641945 33.4523044 -7.75 28.1875 C-7.53255127 27.3730542 -7.31510254 26.5586084 -7.09106445 25.71948242 C-4.78816679 17.12964936 -2.40391508 8.56202944 0 0 Z " fill="#183F5A" transform="translate(473,467)"/>
<path d="M0 0 C-0.2990625 0.8765625 -0.598125 1.753125 -0.90625 2.65625 C-2.00733824 5.87306031 -2.00733824 5.87306031 -2.65625 8.71875 C-5.84422452 19.2272586 -13.99759928 24.12643561 -22.53076172 30.21240234 C-24.99176507 31.99403834 -27.39306165 33.83412038 -29.78515625 35.70703125 C-30.54602539 36.30201416 -31.30689453 36.89699707 -32.09082031 37.51000977 C-33.53782488 38.64328466 -34.98384001 39.77782443 -36.42871094 40.91381836 C-39.83062546 43.53595418 -42.8481449 45.68297053 -47 47 C-52.83147483 35.33705035 -49.45833196 14.88017664 -46 3 C-45.67 2.34 -45.34 1.68 -45 1 C-29.98802974 0.16710922 -15.03408581 -0.13538592 0 0 Z " fill="#173E5A" transform="translate(474,412)"/>
<path d="M0 0 C0.66 0 1.32 0 2 0 C5.59904777 15.16741561 4.93819546 31.18541361 0 46 C-15.33910354 47.04627259 -30.62948541 47.11204255 -46 47 C-45.68804688 46.23357178 -45.37609375 45.46714355 -45.0546875 44.67749023 C-43.95971252 41.99755424 -43.95971252 41.99755424 -43.125 39.16015625 C-39.20240895 28.35941075 -31.67135942 23.27134072 -22.56542969 16.82324219 C-19.00656303 14.29396771 -15.50666937 11.68758572 -12.00073242 9.08569336 C-8.86934782 6.76675677 -5.72239102 4.4695683 -2.57202148 2.17651367 C-1.04269791 1.09017478 -1.04269791 1.09017478 0 0 Z " fill="#163E59" transform="translate(595,421)"/>
<path d="M0 0 C0.50921328 2.18537367 1.00694437 4.37342431 1.5 6.5625 C1.7784375 7.78066406 2.056875 8.99882812 2.34375 10.25390625 C3.79959062 18.56432979 2.11855936 24.93540664 -0.25 32.875 C-2.67079595 41.1872104 -4.96312918 49.46914305 -6.66894531 57.96044922 C-7.42358756 61.47701004 -8.07093872 63.77852094 -11 66 C-19.90175039 58.85018984 -26.29111384 50.91132077 -31.4375 40.75 C-31.77974609 40.07654541 -32.12199219 39.40309082 -32.47460938 38.70922852 C-34.36693208 34.81233483 -35.5195278 31.35808591 -36 27 C-15.10740403 10.7247277 -15.10740403 10.7247277 -5 3 C-4.24460937 2.41605469 -3.48921875 1.83210938 -2.7109375 1.23046875 C-1 0 -1 0 0 0 Z " fill="#173D59" transform="translate(466,439)"/>
<path d="M0 0 C14.75450317 0.68025531 32.03968544 4.03968544 43 15 C42.62608801 22.76586431 39.78750684 30.54745381 37.59716797 37.95068359 C36.44215341 41.91437623 35.3502075 45.89581815 34.25 49.875 C34.02723389 50.67881104 33.80446777 51.48262207 33.57495117 52.31079102 C33.0494609 54.20705371 32.52465375 56.10350569 32 58 C28.53670577 56.41910804 25.59557433 54.42189124 22.5625 52.125 C21.63566406 51.44695312 20.70882812 50.76890625 19.75390625 50.0703125 C15.52792587 46.06180774 13.97194271 40.33853252 12 35 C11.57227295 33.87110352 11.1445459 32.74220703 10.70385742 31.57910156 C9.38796775 28.08020417 8.09669263 24.5731446 6.8125 21.0625 C5.94456763 18.69901405 5.07609917 16.33572489 4.20703125 13.97265625 C3.8303833 12.94406494 3.45373535 11.91547363 3.06567383 10.85571289 C2.37067531 8.99330792 1.63755885 7.14455802 0.86206055 5.31420898 C0 3 0 3 0 0 Z " fill="#173D59" transform="translate(519,354)"/>
<path d="M0 0 C2.69982671 0.81189434 4.60091045 1.81793766 6.94360352 3.37402344 C7.75410156 3.90680908 8.56459961 4.43959473 9.3996582 4.98852539 C10.67824707 5.84643677 10.67824707 5.84643677 11.98266602 6.72167969 C13.29992676 7.59215942 13.29992676 7.59215942 14.64379883 8.48022461 C17.3036401 10.24049887 19.95609841 12.01147442 22.60766602 13.78417969 C24.15679325 14.81335546 25.70624953 15.84203617 27.25610352 16.87011719 C30.71268245 19.16584505 34.16232453 21.47162472 37.60766602 23.78417969 C35.36124573 26.25308888 33.11649379 27.73400386 30.17016602 29.28417969 C27.84080114 30.51389515 25.79141729 31.62786271 23.78204346 33.3372345 C21.16493169 35.07879841 19.6846523 35.17714703 16.5637207 35.21655273 C15.56298523 35.23634689 14.56224976 35.25614105 13.53118896 35.27653503 C11.92162323 35.28611992 11.92162323 35.28611992 10.27954102 35.29589844 C9.17539856 35.31384964 8.0712561 35.33180084 6.93365479 35.35029602 C3.408364 35.40446196 -0.1167909 35.43831568 -3.64233398 35.47167969 C-6.03297792 35.50484712 -8.42360391 35.53933624 -10.81420898 35.57519531 C-16.67346213 35.66019209 -22.53273273 35.72851548 -28.39233398 35.78417969 C-26.1514641 23.49697672 -16.06856022 13.39473869 -7.70483398 4.59667969 C-6.8140918 3.654375 -5.92334961 2.71207031 -5.00561523 1.74121094 C-2.39233398 -0.21582031 -2.39233398 -0.21582031 0 0 Z " fill="#193F5B" transform="translate(460.392333984375,371.2158203125)"/>
<path d="M0 0 C13.2 0 26.4 0 40 0 C40 2.97 40 5.94 40 9 C30.43 9 20.86 9 11 9 C11 13.29 11 17.58 11 22 C19.58 22 28.16 22 37 22 C37 24.97 37 27.94 37 31 C28.75 31 20.5 31 12 31 C12 35.29 12 39.58 12 44 C21.9 44 31.8 44 42 44 C42 46.97 42 49.94 42 53 C28.14 53 14.28 53 0 53 C0 35.51 0 18.02 0 0 Z " fill="#1B3F57" transform="translate(565,601)"/>
<path d="M0 0 C16.59867005 -0.31037538 26.94288948 6.73266074 40.125 16.125 C42.06418268 17.46805995 44.00557797 18.80793108 45.94921875 20.14453125 C50.65892949 23.39339869 55.33989576 26.68042741 60 30 C51.36345732 39.18397454 35.64535646 42.56125065 23.61328125 43.171875 C21.06468593 43.18492798 18.54483015 43.11530937 16 43 C12.36969252 34.53659034 9.07224386 25.98265449 5.9230957 17.33227539 C5.17406883 15.27562113 4.420313 13.22074204 3.66601562 11.16601562 C0 1.14206596 0 1.14206596 0 0 Z " fill="#173F5A" transform="translate(497,483)"/>
<path d="M0 0 C-1.83512325 12.93878038 -14.53988195 24.88353911 -23.60546875 33.48046875 C-26 35 -26 35 -28.3515625 35.0390625 C-32.00428881 33.60598699 -35.02723792 31.46725794 -38.1875 29.1875 C-39.59652364 28.19110475 -41.006729 27.19637899 -42.41796875 26.203125 C-43.15708496 25.68169922 -43.89620117 25.16027344 -44.65771484 24.62304688 C-47.09741544 22.93249762 -49.56644584 21.29604676 -52.05078125 19.671875 C-52.87618408 19.13151611 -53.70158691 18.59115723 -54.55200195 18.03442383 C-56.1684785 16.97993364 -57.78806127 15.93018805 -59.41088867 14.88549805 C-60.50687378 14.16680542 -60.50687378 14.16680542 -61.625 13.43359375 C-62.27726563 13.01134521 -62.92953125 12.58909668 -63.6015625 12.15405273 C-64.06304688 11.77321533 -64.52453125 11.39237793 -65 11 C-65 10.34 -65 9.68 -65 9 C-64.07316406 8.50628906 -63.14632812 8.01257813 -62.19140625 7.50390625 C-60.98172045 6.85686501 -59.77208778 6.20972446 -58.5625 5.5625 C-57.95083984 5.23701172 -57.33917969 4.91152344 -56.70898438 4.57617188 C-53.66283794 3.06284858 -53.66283794 3.06284858 -51 1 C-49.19927848 0.84055519 -47.39254116 0.74843084 -45.5859375 0.68359375 C-44.4422168 0.64161865 -43.29849609 0.59964355 -42.12011719 0.55639648 C-40.26628418 0.49754272 -40.26628418 0.49754272 -38.375 0.4375 C-37.12364258 0.3950415 -35.87228516 0.35258301 -34.58300781 0.30883789 C-23.05383993 -0.05391195 -11.53352317 -0.10979482 0 0 Z " fill="#173F5A" transform="translate(591,474)"/>
<path d="M0 0 C4.28361884 0.52859195 7.32191896 1.46932779 11.01171875 3.6953125 C11.93001465 4.2430835 12.84831055 4.79085449 13.79443359 5.35522461 C14.74914551 5.93925049 15.70385742 6.52327637 16.6875 7.125 C17.66541504 7.71740479 18.64333008 8.30980957 19.65087891 8.92016602 C21.57504432 10.08803153 23.49699942 11.2595481 25.41650391 12.43505859 C27.5551836 13.73055442 29.70652159 14.98353004 31.88671875 16.20703125 C32.87285156 16.77808594 33.85898437 17.34914063 34.875 17.9375 C35.69742188 18.40027344 36.51984375 18.86304688 37.3671875 19.33984375 C39 21 39 21 39.62890625 23.92578125 C39 27 39 27 36.53515625 29.203125 C35.39119791 29.90797113 34.2322549 30.58884782 33.0625 31.25 C32.13860474 31.80699585 32.13860474 31.80699585 31.19604492 32.37524414 C29.14296066 33.60556159 27.07243443 34.80260382 25 36 C23.46254263 36.90846764 21.92610222 37.81865829 20.390625 38.73046875 C16.83147443 40.83953926 13.26048849 42.92698378 9.67895508 44.99780273 C8.08777517 45.94760549 6.54187221 46.97208519 5 48 C2.4375 48.25 2.4375 48.25 0 48 C-2.38541367 45.61458633 -2.25190887 45.11797506 -2.25878906 41.87329102 C-2.26824554 40.59670372 -2.26824554 40.59670372 -2.27789307 39.29432678 C-2.2738446 38.37348801 -2.26979614 37.45264923 -2.265625 36.50390625 C-2.26753845 35.55942123 -2.2694519 34.61493622 -2.27142334 33.64183044 C-2.27278586 31.64199559 -2.26908479 29.64215191 -2.26074219 27.64233398 C-2.2500555 24.57841114 -2.26062915 21.51507625 -2.2734375 18.45117188 C-2.27211568 16.51041537 -2.26955283 14.56965923 -2.265625 12.62890625 C-2.26967346 11.71009171 -2.27372192 10.79127716 -2.27789307 9.84461975 C-2.27158875 8.99040939 -2.26528442 8.13619904 -2.25878906 7.25610352 C-2.25719788 6.50490738 -2.25560669 5.75371124 -2.25396729 4.97975159 C-2 3 -2 3 0 0 Z " fill="#E57B2A" transform="translate(497,416)"/>
<path d="M0 0 C3.09762877 1.59235535 5.42279573 3.60684307 7.9453125 6 C6.57376746 8.95409701 4.95667526 11.44008376 2.9453125 14 C0.19284331 12.94758531 -2.30925079 11.85291899 -4.8671875 10.375 C-10.21572967 8.06778573 -14.33946969 8.47671321 -19.7421875 10.125 C-24.43546652 12.78157303 -27.31057672 15.76766766 -29.0546875 21 C-29.880627 26.98216178 -29.11956974 31.3186278 -25.6015625 36.26953125 C-22.63457856 39.58865722 -19.57853266 41.56691414 -15.07421875 42.33984375 C-10.13087997 42.57888334 -6.50929769 41.18528047 -2.0546875 39 C-0.390474 38.32723284 1.27517832 37.65793165 2.9453125 37 C5.5078125 39.25 5.5078125 39.25 7.9453125 42 C7.828125 44.0078125 7.828125 44.0078125 6.9453125 46 C0.55187401 51.52368671 -6.81384014 53.49316811 -15.11328125 53.3125 C-23.11463232 52.46242286 -30.90073899 49.34848346 -36.0546875 43 C-40.57772285 35.44982902 -42.96528574 28.83665056 -42.0546875 20 C-39.54108922 11.13777063 -34.44083491 5.04474123 -26.4921875 0.5625 C-17.88813117 -3.42995294 -8.83976144 -3.39238077 0 0 Z " fill="#20425C" transform="translate(338.0546875,602)"/>
<path d="M0 0 C15.51 0 31.02 0 47 0 C47 3.3 47 6.6 47 10 C41.06 10 35.12 10 29 10 C29 24.19 29 38.38 29 53 C25.04 53 21.08 53 17 53 C17 38.48 17 23.96 17 9 C11.39 9 5.78 9 0 9 C0 6.03 0 3.06 0 0 Z " fill="#21435C" transform="translate(683,601)"/>
<path d="M0 0 C2.206875 -0.061875 4.41375 -0.12375 6.6875 -0.1875 C8.54955078 -0.23970703 8.54955078 -0.23970703 10.44921875 -0.29296875 C14.2457708 0.02027812 16.01467371 0.69242347 19 3 C21.34168764 6.51253146 21.49623677 7.86469356 21 12 C19.68133728 13.678298 18.34919532 15.34614767 17 17 C17.18259164 20.10405796 18.22776009 21.34164013 20 24 C20 24.99 20 25.98 20 27 C18.25 26.875 18.25 26.875 16 26 C15.443125 25.01 14.88625 24.02 14.3125 23 C12.37110872 19.85826 12.37110872 19.85826 9.74609375 19.3828125 C7.48632063 19.1494087 5.27117708 19.00970588 3 19 C3 21.31 3 23.62 3 26 C2.01 26 1.02 26 0 26 C0 17.42 0 8.84 0 0 Z " fill="#898A8B" transform="translate(399,675)"/>
<path d="M0 0 C16.03451777 -0.45380711 16.03451777 -0.45380711 21.9375 4.6875 C23.22921786 7.49888593 23.14710046 9.84637094 22.91015625 12.90234375 C21.46001449 16.24451596 19.13787282 18.29358488 16 20 C13.16198305 20.56551533 10.5033608 20.48033012 7.625 20.3125 C5.10875 20.209375 2.5925 20.10625 0 20 C0 13.4 0 6.8 0 0 Z " fill="#E4E6E7" transform="translate(515,610)"/>
<path d="M0 0 C1.32 0 2.64 0 4 0 C5.84255516 3.93324939 7.67244719 7.87226022 9.5 11.8125 C10.02464844 12.93205078 10.54929687 14.05160156 11.08984375 15.20507812 C11.83427734 16.81479492 11.83427734 16.81479492 12.59375 18.45703125 C13.05458984 19.44678955 13.51542969 20.43654785 13.99023438 21.45629883 C15 24 15 24 15 27 C13.68 27 12.36 27 11 27 C10.34 24.69 9.68 22.38 9 20 C4.38 20.33 -0.24 20.66 -5 21 C-5.99 23.475 -5.99 23.475 -7 26 C-8.32 26 -9.64 26 -11 26 C-10.39832254 22.45451319 -9.45333792 19.4434669 -7.96875 16.171875 C-7.37126953 14.84929688 -7.37126953 14.84929688 -6.76171875 13.5 C-6.34535156 12.5925 -5.92898438 11.685 -5.5 10.75 C-5.08363281 9.82703125 -4.66726563 8.9040625 -4.23828125 7.953125 C-1.14424697 1.14424697 -1.14424697 1.14424697 0 0 Z " fill="#898989" transform="translate(548,675)"/>
<path d="M0 0 C3.22224138 0.26801252 4.15095612 0.79349047 6.9375 2.75 C9.43209094 6.30290225 10.07615714 8.34654305 10 12.6875 C7.06329114 18.15585443 7.06329114 18.15585443 4 19.6875 C-0.18144011 20.08197548 -2.30946048 20.13785186 -5.875 17.8125 C-8.56141645 15.12608355 -8.93596851 14.24243957 -9.375 10.4375 C-8.78986752 4.58617523 -6.15233582 0.41947744 0 0 Z " fill="#E17C30" transform="translate(620,430.3125)"/>
<path d="M0 0 C6.27 0 12.54 0 19 0 C19 1.32 19 2.64 19 4 C14.05 4 9.1 4 4 4 C4 6.31 4 8.62 4 11 C8.29 11 12.58 11 17 11 C17 12.32 17 13.64 17 15 C12.71 15 8.42 15 4 15 C4 17.64 4 20.28 4 23 C8.95 23 13.9 23 19 23 C19 24.32 19 25.64 19 27 C12.73 27 6.46 27 0 27 C0 18.09 0 9.18 0 0 Z " fill="#909191" transform="translate(435,675)"/>
<path d="M0 0 C1.32 0 2.64 0 4 0 C4 8.58 4 17.16 4 26 C-1.625 24.875 -1.625 24.875 -4.33203125 21.40234375 C-4.90244141 20.68369141 -5.47285156 19.96503906 -6.06054688 19.22460938 C-6.63869141 18.46986328 -7.21683594 17.71511719 -7.8125 16.9375 C-8.40998047 16.17888672 -9.00746094 15.42027344 -9.62304688 14.63867188 C-11.09358847 12.76814296 -12.54835217 10.88522932 -14 9 C-14.33 14.61 -14.66 20.22 -15 26 C-15.99 26 -16.98 26 -18 26 C-18 17.75 -18 9.5 -18 1 C-13.1084087 2.22289783 -11.39852939 4.62388333 -8.375 8.375 C-7.88515625 8.96539063 -7.3953125 9.55578125 -6.890625 10.1640625 C-4.79339342 12.70824508 -2.82998505 15.25502243 -1 18 C-0.67 12.06 -0.34 6.12 0 0 Z " fill="#8C8C8C" transform="translate(488,675)"/>
<path d="M0 0 C0.99 0.66 1.98 1.32 3 2 C3 2.99 3 3.98 3 5 C-0.96 5 -4.92 5 -9 5 C-9.33 6.32 -9.66 7.64 -10 9 C-9.40832031 9.17015625 -8.81664062 9.3403125 -8.20703125 9.515625 C0.79310345 12.27586207 0.79310345 12.27586207 4 16 C4.50193575 19.57629221 4.80542516 21.84939263 2.6875 24.875 C-1.20159655 27.46773103 -5.48862225 27.50028897 -10 27 C-13 25.6875 -13 25.6875 -15 24 C-15 23.01 -15 22.02 -15 21 C-14.44828125 21.16371094 -13.8965625 21.32742188 -13.328125 21.49609375 C-10.73385993 22.05760414 -8.40164589 22.09739008 -5.75 22.0625 C-4.41195312 22.04896484 -4.41195312 22.04896484 -3.046875 22.03515625 C-2.37140625 22.02355469 -1.6959375 22.01195312 -1 22 C-1.07107336 19.55000678 -1.07107336 19.55000678 -2 17 C-4.45785497 15.62956049 -4.45785497 15.62956049 -7.4375 14.875 C-12.8042185 13.29367226 -12.8042185 13.29367226 -15 10 C-14.92991794 6.07540453 -14.87717745 3.84976565 -12 1.0625 C-7.99175913 -0.35708531 -4.21329709 -0.60753535 0 0 Z " fill="#888888" transform="translate(622,675)"/>
<path d="M0 0 C-0.66 0.99 -1.32 1.98 -2 3 C-2.33 4.65 -2.66 6.3 -3 8 C-19.5 8 -36 8 -53 8 C-53 7.67 -53 7.34 -53 7 C-52.16021606 6.99383667 -52.16021606 6.99383667 -51.3034668 6.98754883 C-48.7637413 6.95462695 -46.22642019 6.88399306 -43.6875 6.8125 C-42.36588867 6.80379883 -42.36588867 6.80379883 -41.01757812 6.79492188 C-38.57865096 6.71146049 -36.3685633 6.59314811 -34 6 C-32.16031311 3.58575639 -32.16031311 3.58575639 -31 1 C-28.75 0.29296875 -28.75 0.29296875 -26 0.1875 C-24.42992187 0.11789062 -24.42992187 0.11789062 -22.828125 0.046875 C-15.21731744 -0.04631856 -7.6111021 -0.07165263 0 0 Z " fill="#E2E6E9" transform="translate(595,467)"/>
<path d="M0 0 C1.30710937 0.29777344 1.30710937 0.29777344 2.640625 0.6015625 C5.5207881 1.35330318 8.33168491 2.22088392 11.125 3.25 C10.135 3.58 9.145 3.91 8.125 4.25 C8.08761719 4.87648438 8.05023437 5.50296875 8.01171875 6.1484375 C7.94597656 6.96570313 7.88023437 7.78296875 7.8125 8.625 C7.75449219 9.43710937 7.69648437 10.24921875 7.63671875 11.0859375 C7.125 13.25 7.125 13.25 4.125 15.25 C1.48828125 15.0078125 1.48828125 15.0078125 -1.5625 14.375 C-6.46960126 13.44485687 -10.89355672 13.05840603 -15.875 13.25 C-15.875 12.59 -15.875 11.93 -15.875 11.25 C-13.895 10.92 -11.915 10.59 -9.875 10.25 C-9.84921875 9.62351562 -9.8234375 8.99703125 -9.796875 8.3515625 C-9.74015625 7.53429687 -9.6834375 6.71703125 -9.625 5.875 C-9.57859375 5.06289063 -9.5321875 4.25078125 -9.484375 3.4140625 C-8.875 1.25 -8.875 1.25 -7.1328125 -0.0859375 C-4.38789322 -0.8932667 -2.77793168 -0.64039547 0 0 Z " fill="#DFE2E4" transform="translate(533.875,341.75)"/>
<path d="M0 0 C0.66 0 1.32 0 2 0 C3.33912585 3.12254943 4.67030658 6.24842358 6 9.375 C6.3815625 10.26445313 6.763125 11.15390625 7.15625 12.0703125 C7.69765625 13.34648438 7.69765625 13.34648438 8.25 14.6484375 C8.58515625 15.43395996 8.9203125 16.21948242 9.265625 17.02880859 C10 19 10 19 10 21 C4.39 21 -1.22 21 -7 21 C-5.875 14.25 -5.875 14.25 -4.58984375 11.1328125 C-4.32236328 10.47539063 -4.05488281 9.81796875 -3.77929688 9.140625 C-3.50150391 8.47546875 -3.22371094 7.8103125 -2.9375 7.125 C-2.65583984 6.43664062 -2.37417969 5.74828125 -2.08398438 5.0390625 C-1.39484734 3.35710091 -0.69819202 1.67822303 0 0 Z " fill="#E1E5E7" transform="translate(381,613)"/>
<path d="M0 0 C9.57 0 19.14 0 29 0 C29 0.33 29 0.66 29 1 C19.76 1 10.52 1 1 1 C1.33 1.99 1.66 2.98 2 4 C2.99 3.34 3.98 2.68 5 2 C8.13671875 1.8046875 8.13671875 1.8046875 11.6875 1.875 C12.86699219 1.89304687 14.04648437 1.91109375 15.26171875 1.9296875 C16.61716797 1.96449219 16.61716797 1.96449219 18 2 C17.67 4.97 17.34 7.94 17 11 C15.92878906 10.98839844 14.85757813 10.97679687 13.75390625 10.96484375 C12.35677257 10.95546701 10.95963701 10.94636669 9.5625 10.9375 C8.85544922 10.92912109 8.14839844 10.92074219 7.41992188 10.91210938 C5.61306441 10.90346412 3.80612397 10.94779989 2 11 C1.67 11.33 1.34 11.66 1 12 C9.25 12 17.5 12 26 12 C26 12.33 26 12.66 26 13 C17.42 13 8.84 13 0 13 C0 8.71 0 4.42 0 0 Z " fill="#C9D0D3" transform="translate(576,610)"/>
<path d="M0 0 C6.93 0 13.86 0 21 0 C21 1.32 21 2.64 21 4 C18.03 4 15.06 4 12 4 C12 11.26 12 18.52 12 26 C10.68 26 9.36 26 8 26 C8 18.74 8 11.48 8 4 C5.36 4 2.72 4 0 4 C0 2.68 0 1.36 0 0 Z " fill="#8F8F8F" transform="translate(506,675)"/>
<path d="M0 0 C1.32 0 2.64 0 4 0 C4 7.59 4 15.18 4 23 C8.62 23 13.24 23 18 23 C17.67 24.32 17.34 25.64 17 27 C11.39 27 5.78 27 0 27 C0 18.09 0 9.18 0 0 Z " fill="#919192" transform="translate(577,675)"/>
<path d="M0 0 C1.25414522 3.58752521 0.73271684 6.00508642 -0.21484375 9.640625 C-0.48876953 10.71054687 -0.76269531 11.78046875 -1.04492188 12.8828125 C-1.48674805 14.54957031 -1.48674805 14.54957031 -1.9375 16.25 C-2.22818359 17.37664062 -2.51886719 18.50328125 -2.81835938 19.6640625 C-3.53716405 22.44501174 -4.26465981 25.22338584 -5 28 C-6.32 27.67 -7.64 27.34 -9 27 C-9 25.68 -9 24.36 -9 23 C-9.66 23 -10.32 23 -11 23 C-10.00318287 16.54189755 -8.98363508 10.23428168 -7 4 C-6.21625 3.896875 -5.4325 3.79375 -4.625 3.6875 C-1.66954819 3.22404978 -1.66954819 3.22404978 0 0 Z " fill="#DBE2E6" transform="translate(471,470)"/>
<path d="M0 0 C1.60875 -0.020625 3.2175 -0.04125 4.875 -0.0625 C5.77992188 -0.07410156 6.68484375 -0.08570313 7.6171875 -0.09765625 C10 0 10 0 12 1 C12 4.96 12 8.92 12 13 C7.33328651 14.00001003 4.96698865 13.82783144 0 13 C0 8.71 0 4.42 0 0 Z " fill="#EFEFEF" transform="translate(412,433)"/>
<path d="M0 0 C8.1201995 -0.48478803 8.1201995 -0.48478803 12.0625 1.6875 C14 4 14 4 14.5 6.5625 C13.90399858 9.46800692 13.35968909 10.24160213 11 12 C7.29631297 12.40199208 3.73655831 12.13187853 0 12 C0 8.04 0 4.08 0 0 Z " fill="#E5E5E5" transform="translate(402,678)"/>
<path d="M0 0 C0 0.66 0 1.32 0 2 C2.31 2 4.62 2 7 2 C6.67 4.31 6.34 6.62 6 9 C7.32 9.33 8.64 9.66 10 10 C7.75564555 11.03516348 5.50593133 12.05314977 3.25 13.0625 C2.61578125 13.35705078 1.9815625 13.65160156 1.328125 13.95507812 C-3.45095438 16.07081639 -3.45095438 16.07081639 -6.453125 15.68359375 C-6.96359375 15.45800781 -7.4740625 15.23242188 -8 15 C-6.68 14.34 -5.36 13.68 -4 13 C-4.2784375 11.7934375 -4.2784375 11.7934375 -4.5625 10.5625 C-4.706875 9.716875 -4.85125 8.87125 -5 8 C-4.67 7.67 -4.34 7.34 -4 7 C-4.28674418 4.99279077 -4.61866701 2.9914056 -5 1 C-3 0 -3 0 0 0 Z " fill="#DDE1E3" transform="translate(546,520)"/>
<path d="M0 0 C2.97246802 2.54782974 4.41535288 5.45340883 6 9 C6 9.66 6 10.32 6 11 C2.7 11 -0.6 11 -4 11 C-4 11.99 -4 12.98 -4 14 C-4.97850195 15.02104551 -5.97980427 16.0206121 -7 17 C-7.33 17.99 -7.66 18.98 -8 20 C-9.32 20 -10.64 20 -12 20 C-10.96802425 13.8858211 -8.90775069 6.7985394 -4.3359375 2.3984375 C-2.6875 1.3125 -2.6875 1.3125 0 0 Z " fill="#8B8B8B" transform="translate(549,681)"/>
<path d="M0 0 C0.33 0 0.66 0 1 0 C1.09796875 0.61488281 1.1959375 1.22976563 1.296875 1.86328125 C2.17068709 6.77789554 2.17068709 6.77789554 4.5625 11.0625 C8.3266291 12.51024196 12.01633702 12.22982671 16 12 C15.67 12.66 15.34 13.32 15 14 C12.69 14 10.38 14 8 14 C8 14.66 8 15.32 8 16 C10.64 16 13.28 16 16 16 C16 17.65 16 19.3 16 21 C5.44191344 20.03644647 5.44191344 20.03644647 1 19 C0.87625 18.195625 0.7525 17.39125 0.625 16.5625 C0.315625 15.2940625 0.315625 15.2940625 0 14 C-0.66 13.67 -1.32 13.34 -2 13 C-1.835 12.13375 -1.67 11.2675 -1.5 10.375 C-0.91909293 7.02251659 -0.91909293 7.02251659 -1 3.6875 C-1 1 -1 1 0 0 Z " fill="#E6DDD4" transform="translate(610,437)"/>
<path d="M0 0 C2.5217503 2.5217503 3.82405442 4.19729445 5.48046875 7.23046875 C6.14272461 8.43413086 6.14272461 8.43413086 6.81835938 9.66210938 C7.27017578 10.49548828 7.72199219 11.32886719 8.1875 12.1875 C8.65091797 13.03248047 9.11433594 13.87746094 9.59179688 14.74804688 C10.73250781 16.82955034 11.86837109 18.91354928 13 21 C10 22 10 22 7 22 C6.67 22.66 6.34 23.32 6 24 C4.03177114 22.03177114 4.33751619 18.65191291 4 16 C2.68 16 1.36 16 0 16 C0 10.72 0 5.44 0 0 Z " fill="#E3E7EA" transform="translate(436,624)"/>
<path d="M0 0 C3.63 0 7.26 0 11 0 C11 17.49 11 34.98 11 53 C7.37 53 3.74 53 0 53 C-0.33 42.11 -0.66 31.22 -1 20 C-0.34 20 0.32 20 1 20 C1 30.56 1 41.12 1 52 C3.97 52 6.94 52 10 52 C10 35.17 10 18.34 10 1 C7.36 1.33 4.72 1.66 2 2 C1.896875 2.61875 1.79375 3.2375 1.6875 3.875 C1 6 1 6 -2 8 C-1.125 2.25 -1.125 2.25 0 0 Z " fill="#304C5E" transform="translate(473,601)"/>
<path d="M0 0 C4.29 0 8.58 0 13 0 C13 0.99 13 1.98 13 3 C18.28 3.33 23.56 3.66 29 4 C28.67 4.66 28.34 5.32 28 6 C11.83 6 -4.34 6 -21 6 C-21 5.67 -21 5.34 -21 5 C-14.73 4.67 -8.46 4.34 -2 4 C-1.34 2.68 -0.68 1.36 0 0 Z " fill="#BBC5CB" transform="translate(563,469)"/>
<path d="M0 0 C2.9375 0.375 2.9375 0.375 6 1 C6.33 1.66 6.66 2.32 7 3 C5.02 3 3.04 3 1 3 C1 17.19 1 31.38 1 46 C2.32 46.66 3.64 47.32 5 48 C2.625 48.125 2.625 48.125 0 48 C-2.38541367 45.61458633 -2.25190887 45.11797506 -2.25878906 41.87329102 C-2.26824554 40.59670372 -2.26824554 40.59670372 -2.27789307 39.29432678 C-2.2738446 38.37348801 -2.26979614 37.45264923 -2.265625 36.50390625 C-2.26753845 35.55942123 -2.2694519 34.61493622 -2.27142334 33.64183044 C-2.27278586 31.64199559 -2.26908479 29.64215191 -2.26074219 27.64233398 C-2.2500555 24.57841114 -2.26062915 21.51507625 -2.2734375 18.45117188 C-2.27211568 16.51041537 -2.26955283 14.56965923 -2.265625 12.62890625 C-2.26967346 11.71009171 -2.27372192 10.79127716 -2.27789307 9.84461975 C-2.27158875 8.99040939 -2.26528442 8.13619904 -2.25878906 7.25610352 C-2.25719788 6.50490738 -2.25560669 5.75371124 -2.25396729 4.97975159 C-2 3 -2 3 0 0 Z " fill="#D5874D" transform="translate(497,416)"/>
<path d="M0 0 C5.28 0 10.56 0 16 0 C16 0.99 16 1.98 16 3 C22.27 3 28.54 3 35 3 C35 3.33 35 3.66 35 4 C19.49 4 3.98 4 -12 4 C-12 3.67 -12 3.34 -12 3 C-8.37 3 -4.74 3 -1 3 C-0.67 2.01 -0.34 1.02 0 0 Z " fill="#CBD5DB" transform="translate(695,597)"/>
<path d="M0 0 C2.64 0 5.28 0 8 0 C8.02689216 1.47906892 8.04634621 2.95827483 8.0625 4.4375 C8.07410156 5.26121094 8.08570313 6.08492187 8.09765625 6.93359375 C8 9 8 9 7 10 C4.34536879 10.45459858 1.67810862 10.70243238 -1 11 C-0.67 7.37 -0.34 3.74 0 0 Z " fill="#EEEDED" transform="translate(517,612)"/>
<path d="M0 0 C4.62 0 9.24 0 14 0 C13.67 0.66 13.34 1.32 13 2 C23.23 2.33 33.46 2.66 44 3 C44 3.33 44 3.66 44 4 C38.09196776 4.16774673 32.18380021 4.3282928 26.27539062 4.48217773 C24.26557148 4.5355372 22.25580351 4.59086175 20.24609375 4.64819336 C17.35688306 4.73027321 14.46756189 4.80527752 11.578125 4.87890625 C10.68007141 4.90594131 9.78201782 4.93297638 8.85675049 4.96083069 C8.01618103 4.98092697 7.17561157 5.00102325 6.30957031 5.02172852 C5.20370575 5.05170677 5.20370575 5.05170677 4.07550049 5.08229065 C1.92352855 4.99696802 0.06470835 4.59489159 -2 4 C-1.34 2.68 -0.68 1.36 0 0 Z " fill="#D2DBE0" transform="translate(561,597)"/>
<path d="M0 0 C4 1 4 1 6 4 C5.01 4 4.02 4 3 4 C3 10.93 3 17.86 3 25 C2.01 25 1.02 25 0 25 C0 16.75 0 8.5 0 0 Z " fill="#858585" transform="translate(470,676)"/>
<path d="M0 0 C2.88689962 1.11750953 5.16150909 2.48417034 7 5 C6.91246972 7.80096887 6.19432526 8.79873455 4.25 10.8125 C1.3995411 12.31690887 0.01911587 11.92250763 -3 11 C-2.34 8.69 -1.68 6.38 -1 4 C-1.99 4.33 -2.98 4.66 -4 5 C-2.25 1.125 -2.25 1.125 0 0 Z " fill="#27475F" transform="translate(339,639)"/>
<path d="M0 0 C3.9252025 3.70090521 6.94580156 7.54959656 10 12 C9.67 12.66 9.34 13.32 9 14 C6.03 14 3.06 14 0 14 C0 9.38 0 4.76 0 0 Z " fill="#DBE1E5" transform="translate(634,621)"/>
<path d="M0 0 C1.65 0.33 3.3 0.66 5 1 C5.36923077 7.4 5.36923077 7.4 3.5 10.4375 C3.005 10.953125 2.51 11.46875 2 12 C0.125 11.6875 0.125 11.6875 -2 11 C-4 8 -4 8 -3.8125 6.0625 C-2.87858188 3.69178476 -1.61172061 1.96209466 0 0 Z " fill="#E3E3E3" transform="translate(419,687)"/>
<path d="M0 0 C0.99 0.33 1.98 0.66 3 1 C4.33257403 17.8929385 4.33257403 17.8929385 3 25 C2.01 25 1.02 25 0 25 C0 16.75 0 8.5 0 0 Z " fill="#7C7C7D" transform="translate(399,676)"/>
<path d="M0 0 C0.97324219 0.00257813 1.94648437 0.00515625 2.94921875 0.0078125 C3.91472656 0.00523437 4.88023437 0.00265625 5.875 0 C8.2981558 0.11653083 10.32316844 0.44039602 12.63671875 1.1328125 C12.63671875 1.7928125 12.63671875 2.4528125 12.63671875 3.1328125 C7.19171875 3.6278125 7.19171875 3.6278125 1.63671875 4.1328125 C1.30671875 6.7728125 0.97671875 9.4128125 0.63671875 12.1328125 C0.30671875 11.4728125 -0.02328125 10.8128125 -0.36328125 10.1328125 C-1.35328125 10.4628125 -2.34328125 10.7928125 -3.36328125 11.1328125 C-3.39016276 9.48706684 -3.40962248 7.84119837 -3.42578125 6.1953125 C-3.43738281 5.27878906 -3.44898438 4.36226562 -3.4609375 3.41796875 C-3.32683859 0.28005417 -3.13692199 0.17628983 0 0 Z " fill="#EDEFF0" transform="translate(681.36328125,596.8671875)"/>
<path d="M0 0 C3.0390625 -0.29296875 3.0390625 -0.29296875 6.625 -0.1875 C7.81351562 -0.16042969 9.00203125 -0.13335938 10.2265625 -0.10546875 C11.14179688 -0.07066406 12.05703125 -0.03585937 13 0 C13 0.33 13 0.66 13 1 C9.7 1.33 6.4 1.66 3 2 C2.67 3.32 2.34 4.64 2 6 C8.27 6.33 14.54 6.66 21 7 C21 7.33 21 7.66 21 8 C12.09 8 3.18 8 -6 8 C-5.67 6.68 -5.34 5.36 -5 4 C-4.01 3.67 -3.02 3.34 -2 3 C-1.34 2.01 -0.68 1.02 0 0 Z " fill="#173B54" transform="translate(373,634)"/>
<path d="M0 0 C0.99 0.495 0.99 0.495 2 1 C1.99476318 2.29736084 1.98952637 3.59472168 1.98413086 4.93139648 C1.96608531 9.72647415 1.95456963 14.5215488 1.94506836 19.31665039 C1.94002712 21.39543156 1.93319426 23.47420916 1.92456055 25.55297852 C1.91248578 28.53402586 1.90676976 31.51502649 1.90234375 34.49609375 C1.89718246 35.43150497 1.89202118 36.3669162 1.88670349 37.33067322 C1.88662796 38.19149002 1.88655243 39.05230682 1.88647461 39.93920898 C1.884254 40.70087875 1.88203339 41.46254852 1.87974548 42.24729919 C1.80909045 44.02810605 1.80909045 44.02810605 3 45 C5.33746522 44.69699525 7.67085177 44.36141955 10 44 C10.99 44 11.98 44 13 44 C12.34 44.99 11.68 45.98 11 47 C8.65234375 47.328125 8.65234375 47.328125 5.9375 47.25 C5.03902344 47.23453125 4.14054687 47.2190625 3.21484375 47.203125 C1 47 1 47 0 46 C-0.09295815 44.55710213 -0.11746513 43.10970215 -0.11352539 41.66381836 C-0.11344986 40.7429393 -0.11337433 39.82206024 -0.11329651 38.87327576 C-0.10813522 37.87224319 -0.10297394 36.87121063 -0.09765625 35.83984375 C-0.0962413 34.82024063 -0.09482635 33.80063751 -0.09336853 32.75013733 C-0.08775097 29.47922893 -0.0751955 26.20838787 -0.0625 22.9375 C-0.05748726 20.72591244 -0.05292396 18.51432382 -0.04882812 16.30273438 C-0.03777584 10.86846643 -0.02102063 5.43423803 0 0 Z " fill="#FDDEC5" transform="translate(494,418)"/>
<path d="M0 0 C4.62 0 9.24 0 14 0 C14.33 0.66 14.66 1.32 15 2 C10.71 2 6.42 2 2 2 C1.67 7.61 1.34 13.22 1 19 C5.95 19 10.9 19 16 19 C16 19.33 16 19.66 16 20 C10.72 20 5.44 20 0 20 C0 13.4 0 6.8 0 0 Z " fill="#C5D1D9" transform="translate(515,610)"/>
<path d="M0 0 C2.97246802 2.54782974 4.41535288 5.45340883 6 9 C6 9.66 6 10.32 6 11 C2.7 11 -0.6 11 -4 11 C-3.39301257 6.87248551 -1.96189209 3.6678852 0 0 Z " fill="#E1E1E1" transform="translate(549,681)"/>
<path d="M0 0 C6.93 0.495 6.93 0.495 14 1 C14 2.32 14 3.64 14 5 C9.71 5 5.42 5 1 5 C1 6.98 1 8.96 1 11 C0.67 11 0.34 11 0 11 C-1.125 3.375 -1.125 3.375 0 0 Z " fill="#878888" transform="translate(438,685)"/>
<path d="M0 0 C2.38564077 0.57584432 4.66682784 1.22227595 7 2 C7 2.66 7 3.32 7 4 C8.65 4 10.3 4 12 4 C12.33 5.32 12.66 6.64 13 8 C13.66 8 14.32 8 15 8 C15 8.99 15 9.98 15 11 C14.34 11 13.68 11 13 11 C13 10.34 13 9.68 13 9 C12.01 9.33 11.02 9.66 10 10 C6.02966995 8.88016332 3.61575556 7.17627461 1 4 C0.25 1.75 0.25 1.75 0 0 Z " fill="#E8EBEB" transform="translate(530,491)"/>
<path d="M0 0 C0.81210937 0.24556641 0.81210937 0.24556641 1.640625 0.49609375 C4.40222593 1.08590587 6.92818139 1.09609308 9.75 1.0625 C10.73484375 1.05347656 11.7196875 1.04445313 12.734375 1.03515625 C13.48203125 1.02355469 14.2296875 1.01195312 15 1 C15.33 2.32 15.66 3.64 16 5 C11.05507354 6.64830882 6.73174999 6.75764062 2 4.6875 C1.34 4.130625 0.68 3.57375 0 3 C0 2.01 0 1.02 0 0 Z " fill="#8B8B8B" transform="translate(607,696)"/>
<path d="M0 0 C1.875 1.5625 1.875 1.5625 3 3 C1.35 4.65 -0.3 6.3 -2 8 C-2.47050781 7.66226562 -2.94101562 7.32453125 -3.42578125 6.9765625 C-4.04839844 6.53054688 -4.67101562 6.08453125 -5.3125 5.625 C-5.92738281 5.18414062 -6.54226563 4.74328125 -7.17578125 4.2890625 C-8.7652392 3.16589093 -10.38062171 2.07958553 -12 1 C-7.56980483 -0.79317423 -4.6336848 -1.33862005 0 0 Z " fill="#D8E0E6" transform="translate(471,369)"/>
<path d="M0 0 C0.66 0.99 1.32 1.98 2 3 C1.34 4.32 0.68 5.64 0 7 C-0.66 7 -1.32 7 -2 7 C-1.34 9.31 -0.68 11.62 0 14 C-1.32 14.33 -2.64 14.66 -4 15 C-8 9.25 -8 9.25 -8 7 C-6.00669158 5.65668346 -4.00615134 4.32405988 -2 3 C-1.34 2.01 -0.68 1.02 0 0 Z " fill="#DFE6E8" transform="translate(547,629)"/>
<path d="M0 0 C1.67542976 0.28604898 3.34385343 0.61781233 5 1 C3.87267591 4.38197228 2.85817627 5.24057814 0.1875 7.5 C-0.49957031 8.0878125 -1.18664062 8.675625 -1.89453125 9.28125 C-3.89158044 10.91149424 -5.9250562 12.47060322 -8 14 C-8 13.01 -8 12.02 -8 11 C-7.34 11 -6.68 11 -6 11 C-6.33 10.01 -6.66 9.02 -7 8 C-6.34 8 -5.68 8 -5 8 C-5 6.35 -5 4.7 -5 3 C-4.360625 2.690625 -3.72125 2.38125 -3.0625 2.0625 C-1.06389179 1.1654837 -1.06389179 1.1654837 0 0 Z " fill="#E0E6EC" transform="translate(435,349)"/>
<path d="M0 0 C2.66130399 1.01755741 3.80516056 1.66684861 5.265625 4.1640625 C5.59046875 4.97617187 5.9153125 5.78828125 6.25 6.625 C6.75273437 7.85089844 6.75273437 7.85089844 7.265625 9.1015625 C7.62914062 10.04128906 7.62914062 10.04128906 8 11 C6.02 11 4.04 11 2 11 C1.67 11.66 1.34 12.32 1 13 C0 12 0 12 -0.09765625 9.27734375 C-0.08605469 8.17519531 -0.07445312 7.07304688 -0.0625 5.9375 C-0.05347656 4.83277344 -0.04445313 3.72804688 -0.03515625 2.58984375 C-0.02355469 1.73519531 -0.01195312 0.88054688 0 0 Z " fill="#DBDEE0" transform="translate(441,635)"/>
<path d="M0 0 C1.59134766 0.00676758 1.59134766 0.00676758 3.21484375 0.01367188 C5.80995598 0.02536157 8.40494709 0.04174724 11 0.0625 C10.67 1.0525 10.34 2.0425 10 3.0625 C-4.85 2.5675 -4.85 2.5675 -20 2.0625 C-20 1.7325 -20 1.4025 -20 1.0625 C-13.30139078 0.03999595 -6.7684802 -0.05506273 0 0 Z " fill="#345167" transform="translate(463,411.9375)"/>
<path d="M0 0 C1.23556641 0.01740234 1.23556641 0.01740234 2.49609375 0.03515625 C3.32238281 0.04417969 4.14867187 0.05320312 5 0.0625 C5.63808594 0.07410156 6.27617187 0.08570313 6.93359375 0.09765625 C6.93359375 2.07765625 6.93359375 4.05765625 6.93359375 6.09765625 C4.95359375 7.08765625 4.95359375 7.08765625 2.93359375 8.09765625 C2.60359375 7.10765625 2.27359375 6.11765625 1.93359375 5.09765625 C1.27359375 5.09765625 0.61359375 5.09765625 -0.06640625 5.09765625 C-1.69140625 3.09765625 -1.69140625 3.09765625 -3.06640625 1.09765625 C-2.06640625 0.09765625 -2.06640625 0.09765625 0 0 Z " fill="#EEEEEF" transform="translate(467.06640625,521.90234375)"/>
<path d="M0 0 C5.28 0 10.56 0 16 0 C16 0.99 16 1.98 16 3 C10.39 3 4.78 3 -1 3 C-0.67 2.01 -0.34 1.02 0 0 Z " fill="#EEF1F1" transform="translate(712,597)"/>
<path d="M0 0 C0.99 0.99 1.98 1.98 3 3 C1.875 5.5 1.875 5.5 0 8 C-3.1875 8.3125 -3.1875 8.3125 -6 8 C-6.66 6.68 -7.32 5.36 -8 4 C-6.0625 3.4375 -6.0625 3.4375 -4 3 C-3.67 3.33 -3.34 3.66 -3 4 C-2.01 2.68 -1.02 1.36 0 0 Z " fill="#2F5068" transform="translate(457,641)"/>
<path d="M0 0 C0.33 0 0.66 0 1 0 C1 10.5505618 1 10.5505618 -0.8125 14.5625 C-1.14894531 15.32691406 -1.48539063 16.09132813 -1.83203125 16.87890625 C-2.99700496 18.99456085 -4.21112941 20.39565474 -6 22 C-4.20645194 14.59684417 -2.26858827 7.27235389 0 0 Z " fill="#DBE3E8" transform="translate(558,384)"/>
<path d="M0 0 C0.99 0 1.98 0 3 0 C3 0.66 3 1.32 3 2 C5.64 2 8.28 2 11 2 C11 3.65 11 5.3 11 7 C7.7 6.67 4.4 6.34 1 6 C0.67 4.02 0.34 2.04 0 0 Z " fill="#E0E1E5" transform="translate(615,451)"/>
<path d="M0 0 C3.28177013 3.28177013 3.75405911 7.58257321 5 12 C-0.94 11.67 -6.88 11.34 -13 11 C-13 10.67 -13 10.34 -13 10 C-12.22914063 9.93941406 -11.45828125 9.87882812 -10.6640625 9.81640625 C-9.66117188 9.73261719 -8.65828125 9.64882813 -7.625 9.5625 C-6.62726562 9.48128906 -5.62953125 9.40007812 -4.6015625 9.31640625 C-2.02072387 9.15034374 -2.02072387 9.15034374 0 8 C0 5.36 0 2.72 0 0 Z " fill="#345064" transform="translate(522,384)"/>
<path d="M0 0 C4.95 0 9.9 0 15 0 C15 0.99 15 1.98 15 3 C10.05 3 5.1 3 0 3 C0 2.01 0 1.02 0 0 Z " fill="#8E8E8F" transform="translate(439,698)"/>
<path d="M0 0 C0.99 0 1.98 0 3 0 C3 0.99 3 1.98 3 3 C3.99 3.33 4.98 3.66 6 4 C5.01 5.98 4.02 7.96 3 10 C2.01 9.67 1.02 9.34 0 9 C-1.6875 5.4375 -1.6875 5.4375 -3 2 C-1.68 2 -0.36 2 1 2 C0.67 1.34 0.34 0.68 0 0 Z " fill="#D8DEE4" transform="translate(452,624)"/>
<path d="M0 0 C3.63 1.65 7.26 3.3 11 5 C10.01 5.33 9.02 5.66 8 6 C7.67 6.66 7.34 7.32 7 8 C4.69 8 2.38 8 0 8 C0 5.36 0 2.72 0 0 Z " fill="#DFE1E1" transform="translate(467,514)"/>
<path d="M0 0 C0.66 1.32 1.32 2.64 2 4 C1.01 5.32 0.02 6.64 -1 8 C6.92 8 14.84 8 23 8 C23 8.33 23 8.66 23 9 C14.09 9 5.18 9 -4 9 C-2.74646003 5.86615008 -1.53924548 2.96854486 0 0 Z " fill="#4B6478" transform="translate(553,459)"/>
<path d="M0 0 C7.13840513 -0.60494959 7.13840513 -0.60494959 10.9375 2.0625 C13.35920045 5.51158851 13.92090309 7.80786365 14 12 C13.34 12.66 12.68 13.32 12 14 C11.67 11.03 11.34 8.06 11 5 C10.34 5 9.68 5 9 5 C9 4.01 9 3.02 9 2 C5.7 2 2.4 2 -1 2 C-0.67 1.34 -0.34 0.68 0 0 Z " fill="#D6864C" transform="translate(616,431)"/>
<path d="M0 0 C-0.639375 0.433125 -1.27875 0.86625 -1.9375 1.3125 C-4.26746003 2.91239177 -4.26746003 2.91239177 -5 6 C-6.65 6 -8.3 6 -10 6 C-10 5.34 -10 4.68 -10 4 C-10.99 3.67 -11.98 3.34 -13 3 C-9.21656826 -0.94792877 -5.07874402 -0.29300446 0 0 Z " fill="#D5DDDF" transform="translate(625,423)"/>
<path d="M0 0 C1.32 0 2.64 0 4 0 C4 0.66 4 1.32 4 2 C4.99 2.33 5.98 2.66 7 3 C7 5.64 7 8.28 7 11 C7.66 11 8.32 11 9 11 C8.67 12.32 8.34 13.64 8 15 C5.36 14.67 2.72 14.34 0 14 C0.825 13.46375 1.65 12.9275 2.5 12.375 C5.25306773 10.2108641 5.25306773 10.2108641 5.625 7 C5.25306773 3.7891359 5.25306773 3.7891359 2.5 1.625 C1.675 1.08875 0.85 0.5525 0 0 Z " fill="#F5E4D5" transform="translate(530,433)"/>
<path d="M0 0 C0.66 0 1.32 0 2 0 C2.66 2.64 3.32 5.28 4 8 C2.68 8.33 1.36 8.66 0 9 C-0.99 10.485 -0.99 10.485 -2 12 C-2.66 11.34 -3.32 10.68 -4 10 C-4 8.68 -4 7.36 -4 6 C-2.68 5.67 -1.36 5.34 0 5 C0 3.35 0 1.7 0 0 Z " fill="#D7DFE3" transform="translate(529,386)"/>
<path d="M0 0 C0.87785156 -0.02578125 1.75570312 -0.0515625 2.66015625 -0.078125 C3.41167969 0.03015625 4.16320312 0.1384375 4.9375 0.25 C5.5975 1.24 6.2575 2.23 6.9375 3.25 C1.6575 3.25 -3.6225 3.25 -9.0625 3.25 C-7.24050664 -0.39398673 -3.66434822 0.0647602 0 0 Z " fill="#EEF0F2" transform="translate(517.0625,596.75)"/>
<path d="M0 0 C2 3 2 3 4 10 C-1.61 10 -7.22 10 -13 10 C-13 9.67 -13 9.34 -13 9 C-7.06 8.505 -7.06 8.505 -1 8 C-0.67 5.36 -0.34 2.72 0 0 Z " fill="#BAC8D1" transform="translate(387,624)"/>
<path d="M0 0 C8.25 0 16.5 0 25 0 C24.01 0.33 23.02 0.66 22 1 C22.33 2.32 22.66 3.64 23 5 C22.01 5 21.02 5 20 5 C19.67 3.68 19.34 2.36 19 1 C12.73 1 6.46 1 0 1 C0 0.67 0 0.34 0 0 Z " fill="#E5EDF4" transform="translate(370,643)"/>
<path d="M0 0 C0.33 0 0.66 0 1 0 C1 6.93 1 13.86 1 21 C0.67 21 0.34 21 0 21 C-0.04898437 20.18015625 -0.09796875 19.3603125 -0.1484375 18.515625 C-0.22320312 17.43796875 -0.29796875 16.3603125 -0.375 15.25 C-0.44460938 14.18265625 -0.51421875 13.1153125 -0.5859375 12.015625 C-0.82756773 9.04233434 -0.82756773 9.04233434 -2.12109375 6.78125 C-2.41113281 6.1934375 -2.70117188 5.605625 -3 5 C-1.6875 2.25 -1.6875 2.25 0 0 Z " fill="#DCE7EE" transform="translate(472,622)"/>
<path d="M0 0 C0.33 0.66 0.66 1.32 1 2 C2.32 2.33 3.64 2.66 5 3 C3.68 5.64 2.36 8.28 1 11 C0.34 9.68 -0.32 8.36 -1 7 C-1.99 7 -2.98 7 -4 7 C-2.68 4.69 -1.36 2.38 0 0 Z " fill="#E1E2E0" transform="translate(431,380)"/>
<path d="M0 0 C2.51083114 1.25541557 2.87125446 2.50063488 4 5 C4.66 5 5.32 5 6 5 C6.33 5.99 6.66 6.98 7 8 C2.1725201 6.58707905 -1.7162359 4.57025846 -6 2 C-5.38125 1.855625 -4.7625 1.71125 -4.125 1.5625 C-1.96741678 1.06847775 -1.96741678 1.06847775 0 0 Z " fill="#D9E3E9" transform="translate(463,522)"/>
<path d="M0 0 C0.66 0.66 1.32 1.32 2 2 C1.75 4.5625 1.75 4.5625 1 7 C0.01 7.495 0.01 7.495 -1 8 C-2.65 6.35 -4.3 4.7 -6 3 C-5.34 3 -4.68 3 -4 3 C-4 2.34 -4 1.68 -4 1 C-2.125 0.375 -2.125 0.375 0 0 Z " fill="#23445D" transform="translate(456,497)"/>
<path d="M0 0 C0.78375 0.04125 1.5675 0.0825 2.375 0.125 C1.055 3.095 -0.265 6.065 -1.625 9.125 C-2.615 8.795 -3.605 8.465 -4.625 8.125 C-4.75 5.25 -4.75 5.25 -4.625 2.125 C-2.625 0.125 -2.625 0.125 0 0 Z " fill="#D9DDE0" transform="translate(411.625,380.875)"/>
<path d="M0 0 C0.33 0 0.66 0 1 0 C2.21621622 5.35135135 2.21621622 5.35135135 1.25 8.25 C0 10 0 10 -3 12 C-3.88336837 9.5332355 -4.1312406 8.36140628 -3.22265625 5.859375 C-2.83980469 5.16328125 -2.45695312 4.4671875 -2.0625 3.75 C-1.68222656 3.04359375 -1.30195313 2.3371875 -0.91015625 1.609375 C-0.60980469 1.07828125 -0.30945313 0.5471875 0 0 Z " fill="#DBE1E7" transform="translate(473,414)"/>
<path d="M0 0 C-2.47807047 2.47807047 -3.23592468 2.25650238 -6.6484375 2.265625 C-7.57140625 2.26820313 -8.494375 2.27078125 -9.4453125 2.2734375 C-10.89550781 2.26183594 -10.89550781 2.26183594 -12.375 2.25 C-13.3340625 2.25773437 -14.293125 2.26546875 -15.28125 2.2734375 C-16.20679688 2.27085937 -17.13234375 2.26828125 -18.0859375 2.265625 C-19.3551001 2.26224121 -19.3551001 2.26224121 -20.64990234 2.25878906 C-23.17536387 1.98068921 -24.81722775 1.2679848 -27 0 C-23.06290089 -0.19665429 -19.12531328 -0.38075477 -15.1875 -0.5625 C-14.06794922 -0.61857422 -12.94839844 -0.67464844 -11.79492188 -0.73242188 C-10.72177734 -0.78076172 -9.64863281 -0.82910156 -8.54296875 -0.87890625 C-7.0583313 -0.94960327 -7.0583313 -0.94960327 -5.54370117 -1.02172852 C-3 -1 -3 -1 0 0 Z " fill="#EBF2F6" transform="translate(485,406)"/>
<path d="M0 0 C2.64 0.33 5.28 0.66 8 1 C7.67 2.65 7.34 4.3 7 6 C5.35 6.33 3.7 6.66 2 7 C1.34 4.69 0.68 2.38 0 0 Z " fill="#274860" transform="translate(497,483)"/>
<path d="M0 0 C0.66 0 1.32 0 2 0 C2.22103337 3.86808396 1.77356197 6.54155416 0 10 C-2.125 12.3125 -2.125 12.3125 -4 14 C-4.66 13.67 -5.32 13.34 -6 13 C-4.02 8.71 -2.04 4.42 0 0 Z " fill="#2C495F" transform="translate(605,476)"/>
<path d="M0 0 C1.98 0 3.96 0 6 0 C6 0.99 6 1.98 6 3 C4.35666496 4.03789581 2.68756133 5.03567924 1 6 C0.34 6.99 -0.32 7.98 -1 9 C-0.67 6.03 -0.34 3.06 0 0 Z " fill="#EAEEEF" transform="translate(542,346)"/>
<path d="M0 0 C0 1.32 0 2.64 0 4 C0.99 4 1.98 4 3 4 C3 4.66 3 5.32 3 6 C3.66 6 4.32 6 5 6 C5 6.66 5 7.32 5 8 C0.38486888 6.68139111 -3.09897612 4.78644563 -7 2 C-4.35261084 0.5393715 -3.10551666 0 0 0 Z " fill="#F6E2D3" transform="translate(522,423)"/>
<path d="M0 0 C0.33 0.99 0.66 1.98 1 3 C-1.64 3.33 -4.28 3.66 -7 4 C-7.66 2.68 -8.32 1.36 -9 0 C-5.93109813 -1.53445094 -3.29905734 -0.54984289 0 0 Z " fill="#DDE1E5" transform="translate(537,534)"/>
<path d="M0 0 C0.33 0.99 0.66 1.98 1 3 C-0.95129434 6.46896772 -3.43190265 8.30515376 -7 10 C-7.99 9.67 -8.98 9.34 -10 9 C-6.7 6.03 -3.4 3.06 0 0 Z " fill="#D6E2E5" transform="translate(591,521)"/>
<path d="M0 0 C3.3 0 6.6 0 10 0 C11 4 11 4 10 6 C6.125 4.25 6.125 4.25 5 2 C2.47266765 1.34444881 2.47266765 1.34444881 0 1 C0 0.67 0 0.34 0 0 Z " fill="#2F4F67" transform="translate(501,353)"/>
<path d="M0 0 C0 0.99 0 1.98 0 3 C-2.75078884 3.91692961 -4.35948913 4.10886083 -7.1875 4.0625 C-9.0746875 4.0315625 -9.0746875 4.0315625 -11 4 C-11 3.67 -11 3.34 -11 3 C-9.02 2.67 -7.04 2.34 -5 2 C-6.32 1.34 -7.64 0.68 -9 0 C-2.25 -1.125 -2.25 -1.125 0 0 Z " fill="#959595" transform="translate(623,698)"/>
<path d="M0 0 C0.763125 0.639375 1.52625 1.27875 2.3125 1.9375 C4.88246713 4.14232781 4.88246713 4.14232781 8 5 C7.34 5.66 6.68 6.32 6 7 C2.375 6.625 2.375 6.625 -1 6 C-0.67 4.02 -0.34 2.04 0 0 Z " fill="#DFE1E5" transform="translate(425,516)"/>
<path d="M0 0 C1.43088528 2.86177057 0.59991697 4.93375773 0 8 C-0.33 7.34 -0.66 6.68 -1 6 C-1.86625 6.2784375 -1.86625 6.2784375 -2.75 6.5625 C-5.20692525 7.04023546 -6.64397534 6.75729364 -9 6 C-9 5.34 -9 4.68 -9 4 C-7.88625 3.896875 -6.7725 3.79375 -5.625 3.6875 C-4.42875 3.460625 -3.2325 3.23375 -2 3 C-1.34 2.01 -0.68 1.02 0 0 Z " fill="#E6E3E1" transform="translate(627,447)"/>
<path d="M0 0 C-1.78809697 1.17213045 -3.58059125 2.33755526 -5.375 3.5 C-6.37273438 4.1496875 -7.37046875 4.799375 -8.3984375 5.46875 C-11 7 -11 7 -13 7 C-13 6.34 -13 5.68 -13 5 C-10 3 -10 3 -7 3 C-7 2.01 -7 1.02 -7 0 C-3.86650268 -1.04449911 -3.01031744 -0.93423645 0 0 Z " fill="#D88648" transform="translate(535,444)"/>
<path d="M0 0 C1.11375 0.3403125 1.11375 0.3403125 2.25 0.6875 C1.92 1.6775 1.59 2.6675 1.25 3.6875 C0.26 3.6875 -0.73 3.6875 -1.75 3.6875 C-2.41 4.3475 -3.07 5.0075 -3.75 5.6875 C-5.07 5.6875 -6.39 5.6875 -7.75 5.6875 C-6.3502077 1.48812309 -4.58927239 -0.52150823 0 0 Z " fill="#DEDFE0" transform="translate(437.75,349.3125)"/>
<path d="M0 0 C0.66 0 1.32 0 2 0 C1.67 1.98 1.34 3.96 1 6 C-1.64 6 -4.28 6 -7 6 C-7.33 5.34 -7.66 4.68 -8 4 C-5.36 3.34 -2.72 2.68 0 2 C0 1.34 0 0.68 0 0 Z " fill="#E8EAEA" transform="translate(446,448)"/>
<path d="M0 0 C-0.33 1.32 -0.66 2.64 -1 4 C-2.65 3.67 -4.3 3.34 -6 3 C-6.33 2.01 -6.66 1.02 -7 0 C-3.86650268 -1.04449911 -3.01031744 -0.93423645 0 0 Z " fill="#E0E3E5" transform="translate(318,636)"/>
<path d="M0 0 C3.3 0.33 6.6 0.66 10 1 C10 1.66 10 2.32 10 3 C6.7 3 3.4 3 0 3 C0 2.01 0 1.02 0 0 Z " fill="#ECF1F3" transform="translate(424,597)"/>
<path d="M0 0 C0.5259375 0.7734375 0.5259375 0.7734375 1.0625 1.5625 C3.06984193 3.38471859 3.06984193 3.38471859 6.5 2.6875 C7.655 2.460625 8.81 2.23375 10 2 C10.99 2 11.98 2 13 2 C12.01 3.485 12.01 3.485 11 5 C8.6171875 5.29296875 8.6171875 5.29296875 5.875 5.1875 C4.96492188 5.16042969 4.05484375 5.13335937 3.1171875 5.10546875 C2.41851562 5.07066406 1.71984375 5.03585937 1 5 C0.67 3.35 0.34 1.7 0 0 Z " fill="#F6E3D1" transform="translate(494,460)"/>
<path d="M0 0 C0 3.10551666 -0.5393715 4.35261084 -2 7 C-3.98 7 -5.96 7 -8 7 C-5.42215154 4.35247996 -3.08351902 2.05567935 0 0 Z " fill="#27485E" transform="translate(574,437)"/>
<path d="M0 0 C0 0.66 0 1.32 0 2 C1.98 2 3.96 2 6 2 C6 2.33 6 2.66 6 3 C2.7 3.66 -0.6 4.32 -4 5 C-4 3.68 -4 2.36 -4 1 C-2 0 -2 0 0 0 Z " fill="#939393" transform="translate(613,676)"/>
<path d="M0 0 C0.99 0.33 1.98 0.66 3 1 C2.01 2.485 2.01 2.485 1 4 C1.33 4.99 1.66 5.98 2 7 C1.01 7.495 1.01 7.495 0 8 C-1.5 6.6875 -1.5 6.6875 -3 5 C-3 4.01 -3 3.02 -3 2 C-2.01 1.34 -1.02 0.68 0 0 Z " fill="#EBEDEE" transform="translate(557,513)"/>
<path d="M0 0 C0.99 0.33 1.98 0.66 3 1 C2.67 2.65 2.34 4.3 2 6 C-1.63 6 -5.26 6 -9 6 C-9 5.67 -9 5.34 -9 5 C-6.36 4.67 -3.72 4.34 -1 4 C-0.67 2.68 -0.34 1.36 0 0 Z " fill="#3A586C" transform="translate(593,461)"/>
<path d="M0 0 C-0.66 1.65 -1.32 3.3 -2 5 C-3.9375 4.6875 -3.9375 4.6875 -6 4 C-6.33 3.01 -6.66 2.02 -7 1 C-4 0 -4 0 0 0 Z " fill="#E8E8E7" transform="translate(579,430)"/>
<path d="M0 0 C1.32 0 2.64 0 4 0 C6 3 6 3 6 6 C4.125 5.8125 4.125 5.8125 2 5 C0.75 2.4375 0.75 2.4375 0 0 Z " fill="#858585" transform="translate(413,696)"/>
<path d="M0 0 C4.875 4.75 4.875 4.75 6 7 C3.64828869 6.40138258 1.3140622 5.73075648 -1 5 C-1.33 4.34 -1.66 3.68 -2 3 C-1.34 2.01 -0.68 1.02 0 0 Z " fill="#E6EFF3" transform="translate(299,641)"/>
<path d="M0 0 C-0.33 2.31 -0.66 4.62 -1 7 C-2.65 5.35 -4.3 3.7 -6 2 C-2.25 0 -2.25 0 0 0 Z " fill="#E8E9E9" transform="translate(492,383)"/>
<path d="M0 0 C0.66 0.99 1.32 1.98 2 3 C1.34 4.32 0.68 5.64 0 7 C-1.98 7 -3.96 7 -6 7 C-4.02 4.69 -2.04 2.38 0 0 Z " fill="#D6DEE3" transform="translate(547,629)"/>
<path d="M0 0 C3.465 1.485 3.465 1.485 7 3 C4 5 4 5 2 5 C2 5.99 2 6.98 2 8 C1.34 8 0.68 8 0 8 C0 5.36 0 2.72 0 0 Z " fill="#D4DADD" transform="translate(467,514)"/>
<path d="M0 0 C0.99 0 1.98 0 3 0 C3 1.65 3 3.3 3 5 C-0.3 4.67 -3.6 4.34 -7 4 C-7 3.67 -7 3.34 -7 3 C-6.21625 2.87625 -5.4325 2.7525 -4.625 2.625 C-1.85942178 2.20882007 -1.85942178 2.20882007 0 0 Z " fill="#C1CBD0" transform="translate(623,453)"/>
<path d="M0 0 C1 2 1 2 0.375 5 C-1 8 -1 8 -3.625 9.375 C-4.40875 9.58125 -5.1925 9.7875 -6 10 C-4.6302836 6.00499382 -2.74277578 3.19990508 0 0 Z " fill="#244459" transform="translate(446,383)"/>
<path d="M0 0 C2.97 0 5.94 0 9 0 C9 0.99 9 1.98 9 3 C7.35 3.33 5.7 3.66 4 4 C4 3.34 4 2.68 4 2 C2.68 1.34 1.36 0.68 0 0 Z " fill="#19394C" transform="translate(377,601)"/>
<path d="M0 0 C0.33 0.99 0.66 1.98 1 3 C1.99 3 2.98 3 4 3 C3.67 4.32 3.34 5.64 3 7 C1.02 5.68 -0.96 4.36 -3 3 C-2.01 2.01 -1.02 1.02 0 0 Z " fill="#29485D" transform="translate(469,364)"/>
<path d="M0 0 C3.44216672 2.6598561 3.99504674 5.90288286 5 10 C4.01 9.67 3.02 9.34 2 9 C2 7.35 2 5.7 2 4 C1.01 4 0.02 4 -1 4 C-0.67 2.68 -0.34 1.36 0 0 Z " fill="#D1DEE4" transform="translate(519,359)"/>
<path d="M0 0 C1.32 0.33 2.64 0.66 4 1 C3.625 3.4375 3.625 3.4375 3 6 C2.01 6.495 2.01 6.495 1 7 C0.67 4.69 0.34 2.38 0 0 Z " fill="#8C8C8C" transform="translate(622,693)"/>
<path d="M0 0 C1.98 0.495 1.98 0.495 4 1 C4 1.99 4 2.98 4 4 C5.32 4.66 6.64 5.32 8 6 C4.00095031 6 2.19799578 4.27413033 -1 2 C-0.67 1.34 -0.34 0.68 0 0 Z " fill="#D4E0E6" transform="translate(527,491)"/>
<path d="M0 0 C-0.66 1.98 -1.32 3.96 -2 6 C-3.32 5.34 -4.64 4.68 -6 4 C-6 3.34 -6 2.68 -6 2 C-2.25 0 -2.25 0 0 0 Z " fill="#29475A" transform="translate(532,481)"/>
<path d="M0 0 C0 0.66 0 1.32 0 2 C-0.99 2 -1.98 2 -3 2 C-3 2.66 -3 3.32 -3 4 C-6 6 -6 6 -8.1875 5.625 C-8.785625 5.41875 -9.38375 5.2125 -10 5 C-8.71186658 4.16121545 -7.41936744 3.32913217 -6.125 2.5 C-5.40570313 2.0359375 -4.68640625 1.571875 -3.9453125 1.09375 C-2 0 -2 0 0 0 Z " fill="#F5DAC2" transform="translate(517,455)"/>
<path d="M0 0 C4.29 0.33 8.58 0.66 13 1 C13 1.33 13 1.66 13 2 C6.565 2.495 6.565 2.495 0 3 C0 2.01 0 1.02 0 0 Z " fill="#29485E" transform="translate(432,404)"/>
<path d="M0 0 C0.99 0 1.98 0 3 0 C1.81323934 4.10801767 1.10551666 5.89448334 -2 9 C-1.34 6.03 -0.68 3.06 0 0 Z " fill="#C6D3DC" transform="translate(554,397)"/>
<path d="M0 0 C1.75 1.3125 1.75 1.3125 3 3 C3 3.66 3 4.32 3 5 C-1.75 4.125 -1.75 4.125 -4 3 C-4 2.34 -4 1.68 -4 1 C-2.1875 0.3125 -2.1875 0.3125 0 0 Z " fill="#29485F" transform="translate(552,344)"/>
<path d="M0 0 C0.66 0.66 1.32 1.32 2 2 C-0.3125 4.0625 -0.3125 4.0625 -3 6 C-3.99 5.67 -4.98 5.34 -6 5 C-5.34 5 -4.68 5 -4 5 C-3.71125 4.360625 -3.4225 3.72125 -3.125 3.0625 C-2 1 -2 1 0 0 Z " fill="#EEEFEE" transform="translate(468,433)"/>
<path d="M0 0 C1.32 1.32 2.64 2.64 4 4 C2.68 4 1.36 4 0 4 C-0.33 4.66 -0.66 5.32 -1 6 C-1.99 5.34 -2.98 4.68 -4 4 C-2.68 2.68 -1.36 1.36 0 0 Z " fill="#D8DEE3" transform="translate(315,613)"/>
<path d="M0 0 C0.66 1.32 1.32 2.64 2 4 C1.01 4.99 0.02 5.98 -1 7 C-2.32 6.34 -3.64 5.68 -5 5 C-3.35 3.35 -1.7 1.7 0 0 Z " fill="#DBE3E8" transform="translate(510,519)"/>
<path d="M0 0 C0.66 0 1.32 0 2 0 C0.63055898 2.94956528 -0.87830409 5.52468811 -3 8 C-3.66 8 -4.32 8 -5 8 C-3.63055898 5.05043472 -2.12169591 2.47531189 0 0 Z " fill="#D8E2E9" transform="translate(606,504)"/>
<path d="M0 0 C0.2475 0.639375 0.495 1.27875 0.75 1.9375 C1.81562433 4.18741541 1.81562433 4.18741541 4.125 4.75 C4.74375 4.8325 5.3625 4.915 6 5 C4.68 5.99 3.36 6.98 2 8 C1.34 7.67 0.68 7.34 0 7 C0 4.69 0 2.38 0 0 Z " fill="#EEF1F2" transform="translate(467,439)"/>
<path d="M0 0 C0.33 0.66 0.66 1.32 1 2 C1.99 2.33 2.98 2.66 4 3 C3.34 4.32 2.68 5.64 2 7 C1.34 7 0.68 7 0 7 C0 4.69 0 2.38 0 0 Z " fill="#223D52" transform="translate(558,434)"/>
<path d="M0 0 C1.32 0 2.64 0 4 0 C3.625 1.9375 3.625 1.9375 3 4 C2.01 4.495 2.01 4.495 1 5 C1 4.34 1 3.68 1 3 C0.01 2.67 -0.98 2.34 -2 2 C-1.34 1.34 -0.68 0.68 0 0 Z " fill="#224256" transform="translate(458,371)"/>
<path d="M0 0 C0.99 0.33 1.98 0.66 3 1 C3 1.66 3 2.32 3 3 C3.66 3.66 4.32 4.32 5 5 C3.02 5 1.04 5 -1 5 C-0.67 3.35 -0.34 1.7 0 0 Z " fill="#EEF2F3" transform="translate(525,321)"/>
<path d="M0 0 C0.33 0 0.66 0 1 0 C1 3.63 1 7.26 1 11 C0.01 10.34 -0.98 9.68 -2 9 C-1.34 6.03 -0.68 3.06 0 0 Z " fill="#E1E1E1" transform="translate(487,683)"/>
<path d="M0 0 C1.32 0 2.64 0 4 0 C3.6875 1.9375 3.6875 1.9375 3 4 C2.01 4.33 1.02 4.66 0 5 C0 3.35 0 1.7 0 0 Z " fill="#E0E1E1" transform="translate(436,649)"/>
<path d="M0 0 C0.33 1.32 0.66 2.64 1 4 C-0.32 4.33 -1.64 4.66 -3 5 C-3.66 3.68 -4.32 2.36 -5 1 C-2 0 -2 0 0 0 Z " fill="#DCDFE3" transform="translate(551,646)"/>
<path d="M0 0 C0.66 0 1.32 0 2 0 C2.66 1.98 3.32 3.96 4 6 C2.35 5.67 0.7 5.34 -1 5 C-0.67 3.35 -0.34 1.7 0 0 Z " fill="#C2CED7" transform="translate(381,613)"/>
<path d="M0 0 C0.66 0.33 1.32 0.66 2 1 C0.71937515 2.7074998 -0.61767557 4.37373596 -2 6 C-2.66 6 -3.32 6 -4 6 C-4 5.01 -4 4.02 -4 3 C-2 1.3125 -2 1.3125 0 0 Z " fill="#DAE4EA" transform="translate(579,531)"/>
<path d="M0 0 C0.99 0.33 1.98 0.66 3 1 C2.34 2.32 1.68 3.64 1 5 C-0.32 4.67 -1.64 4.34 -3 4 C-2.01 2.68 -1.02 1.36 0 0 Z " fill="#123854" transform="translate(596,498)"/>
<path d="M0 0 C0.66 0.33 1.32 0.66 2 1 C2 2.65 2 4.3 2 6 C0.68 6 -0.64 6 -2 6 C-1.34 4.02 -0.68 2.04 0 0 Z " fill="#EBEEF1" transform="translate(562,439)"/>
<path d="M0 0 C1.65 0 3.3 0 5 0 C4 3 4 3 1.9375 4.1875 C1.298125 4.455625 0.65875 4.72375 0 5 C0 3.35 0 1.7 0 0 Z " fill="#244358" transform="translate(570,427)"/>
<path d="M0 0 C2 3 2 3 1.625 5.1875 C1.41875 5.785625 1.2125 6.38375 1 7 C0.01 6.67 -0.98 6.34 -2 6 C-1.34 4.02 -0.68 2.04 0 0 Z " fill="#F0EFF0" transform="translate(523,421)"/>
<path d="M0 0 C0.66 0.99 1.32 1.98 2 3 C0.68 4.32 -0.64 5.64 -2 7 C-2.66 6.67 -3.32 6.34 -4 6 C-2.68 4.02 -1.36 2.04 0 0 Z " fill="#D0D9DD" transform="translate(431,380)"/>
</svg>
